<?xml version="1.0" encoding="us-ascii" standalone="no"?><svg xmlns="http://www.w3.org/2000/svg" xmlns:xlink="http://www.w3.org/1999/xlink" contentStyleType="text/css" height="794px" preserveAspectRatio="none" style="width:561px;height:794px;background:#FFFFFF;" version="1.1" viewBox="0 0 561 794" width="561px" zoomAndPan="magnify"><defs/><g><rect fill="#FFFFFF" height="598.4143" style="stroke:#181818;stroke-width:1.0;" width="10" x="33.5" y="94.0679"/><rect fill="#FFFFFF" height="574.7083" style="stroke:#181818;stroke-width:1.0;" width="10" x="250.5" y="117.7739"/><rect fill="#FFFFFF" height="31.706" style="stroke:#181818;stroke-width:1.0;" width="10" x="471.5" y="149.4799"/><rect fill="#FFFFFF" height="31.706" style="stroke:#181818;stroke-width:1.0;" width="10" x="471.5" y="244.598"/><rect fill="#FFFFFF" height="31.706" style="stroke:#181818;stroke-width:1.0;" width="10" x="471.5" y="308.01"/><rect fill="#FFFFFF" height="31.706" style="stroke:#181818;stroke-width:1.0;" width="10" x="471.5" y="429.8341"/><rect fill="#FFFFFF" height="31.706" style="stroke:#181818;stroke-width:1.0;" width="10" x="471.5" y="558.6582"/><rect fill="#FFFFFF" height="63.412" style="stroke:#181818;stroke-width:1.0;" width="10" x="471.5" y="629.0702"/><rect fill="none" height="83.118" style="stroke:#000000;stroke-width:1.5;" width="376" x="179" y="386.4221"/><rect fill="none" height="114.8241" style="stroke:#000000;stroke-width:1.5;" width="545" x="10" y="483.5401"/><line style="stroke:#181818;stroke-width:0.5;stroke-dasharray:5.0,5.0;" x1="38" x2="38" y1="84.0679" y2="710.4822"/><line style="stroke:#181818;stroke-width:0.5;stroke-dasharray:5.0,5.0;" x1="255" x2="255" y1="84.0679" y2="710.4822"/><line style="stroke:#181818;stroke-width:0.5;stroke-dasharray:5.0,5.0;" x1="476" x2="476" y1="84.0679" y2="710.4822"/><text fill="#000000" font-family="sans-serif" font-size="14" lengthAdjust="spacing" textLength="31" x="20" y="79.9659">User</text><ellipse cx="38.5" cy="13.5" fill="#E2E2F0" rx="8" ry="8" style="stroke:#181818;stroke-width:0.5;"/><path d="M38.5,21.5 L38.5,48.5 M25.5,29.5 L51.5,29.5 M38.5,48.5 L25.5,63.5 M38.5,48.5 L51.5,63.5 " fill="none" style="stroke:#181818;stroke-width:0.5;"/><text fill="#000000" font-family="sans-serif" font-size="14" lengthAdjust="spacing" textLength="31" x="20" y="724.4482">User</text><ellipse cx="38.5" cy="737.0501" fill="#E2E2F0" rx="8" ry="8" style="stroke:#181818;stroke-width:0.5;"/><path d="M38.5,745.0501 L38.5,772.0501 M25.5,753.0501 L51.5,753.0501 M38.5,772.0501 L25.5,787.0501 M38.5,772.0501 L51.5,787.0501 " fill="none" style="stroke:#181818;stroke-width:0.5;"/><rect fill="#E2E2F0" height="33.0679" rx="2.5" ry="2.5" style="stroke:#181818;stroke-width:0.5;" width="133" x="189" y="50"/><text fill="#000000" font-family="sans-serif" font-size="14" lengthAdjust="spacing" textLength="119" x="196" y="71.9659">Scheduling Client</text><rect fill="#E2E2F0" height="33.0679" rx="2.5" ry="2.5" style="stroke:#181818;stroke-width:0.5;" width="133" x="189" y="709.4822"/><text fill="#000000" font-family="sans-serif" font-size="14" lengthAdjust="spacing" textLength="119" x="196" y="731.4482">Scheduling Client</text><rect fill="#E2E2F0" height="33.0679" rx="2.5" ry="2.5" style="stroke:#181818;stroke-width:0.5;" width="137" x="408" y="50"/><text fill="#000000" font-family="sans-serif" font-size="14" lengthAdjust="spacing" textLength="123" x="415" y="71.9659">Scheduling Server</text><rect fill="#E2E2F0" height="33.0679" rx="2.5" ry="2.5" style="stroke:#181818;stroke-width:0.5;" width="137" x="408" y="709.4822"/><text fill="#000000" font-family="sans-serif" font-size="14" lengthAdjust="spacing" textLength="123" x="415" y="731.4482">Scheduling Server</text><rect fill="#FFFFFF" height="598.4143" style="stroke:#181818;stroke-width:1.0;" width="10" x="33.5" y="94.0679"/><rect fill="#FFFFFF" height="574.7083" style="stroke:#181818;stroke-width:1.0;" width="10" x="250.5" y="117.7739"/><rect fill="#FFFFFF" height="31.706" style="stroke:#181818;stroke-width:1.0;" width="10" x="471.5" y="149.4799"/><rect fill="#FFFFFF" height="31.706" style="stroke:#181818;stroke-width:1.0;" width="10" x="471.5" y="244.598"/><rect fill="#FFFFFF" height="31.706" style="stroke:#181818;stroke-width:1.0;" width="10" x="471.5" y="308.01"/><rect fill="#FFFFFF" height="31.706" style="stroke:#181818;stroke-width:1.0;" width="10" x="471.5" y="429.8341"/><rect fill="#FFFFFF" height="31.706" style="stroke:#181818;stroke-width:1.0;" width="10" x="471.5" y="558.6582"/><rect fill="#FFFFFF" height="63.412" style="stroke:#181818;stroke-width:1.0;" width="10" x="471.5" y="629.0702"/><polygon fill="#181818" points="238.5,113.7739,248.5,117.7739,238.5,121.7739,242.5,117.7739" style="stroke:#181818;stroke-width:1.0;"/><line style="stroke:#181818;stroke-width:1.0;" x1="43.5" x2="244.5" y1="117.7739" y2="117.7739"/><text fill="#000000" font-family="sans-serif" font-size="13" lengthAdjust="spacing" textLength="68" x="50.5" y="111.9649">Open client</text><polygon fill="#181818" points="459.5,145.4799,469.5,149.4799,459.5,153.4799,463.5,149.4799" style="stroke:#181818;stroke-width:1.0;"/><line style="stroke:#181818;stroke-width:1.0;" x1="260.5" x2="465.5" y1="149.4799" y2="149.4799"/><text fill="#000000" font-family="sans-serif" font-size="13" lengthAdjust="spacing" textLength="192" x="267.5" y="143.6709">Get available HealthcareServices</text><polygon fill="#181818" points="271.5,177.186,261.5,181.186,271.5,185.186,267.5,181.186" style="stroke:#181818;stroke-width:1.0;"/><line style="stroke:#181818;stroke-width:1.0;stroke-dasharray:2.0,2.0;" x1="265.5" x2="475.5" y1="181.186" y2="181.186"/><text fill="#000000" font-family="sans-serif" font-size="13" lengthAdjust="spacing" textLength="169" x="277.5" y="175.377">Available HealthcareServices</text><polygon fill="#181818" points="238.5,208.892,248.5,212.892,238.5,216.892,242.5,212.892" style="stroke:#181818;stroke-width:1.0;"/><line style="stroke:#181818;stroke-width:1.0;" x1="43.5" x2="244.5" y1="212.892" y2="212.892"/><text fill="#000000" font-family="sans-serif" font-size="13" lengthAdjust="spacing" textLength="145" x="50.5" y="207.083">Select HealthcareService</text><polygon fill="#181818" points="459.5,240.598,469.5,244.598,459.5,248.598,463.5,244.598" style="stroke:#181818;stroke-width:1.0;"/><line style="stroke:#181818;stroke-width:1.0;" x1="260.5" x2="465.5" y1="244.598" y2="244.598"/><text fill="#000000" font-family="sans-serif" font-size="13" lengthAdjust="spacing" textLength="139" x="267.5" y="238.789">Get available Schedules</text><polygon fill="#181818" points="271.5,272.304,261.5,276.304,271.5,280.304,267.5,276.304" style="stroke:#181818;stroke-width:1.0;"/><line style="stroke:#181818;stroke-width:1.0;stroke-dasharray:2.0,2.0;" x1="265.5" x2="475.5" y1="276.304" y2="276.304"/><text fill="#000000" font-family="sans-serif" font-size="13" lengthAdjust="spacing" textLength="116" x="277.5" y="270.495">Available Schedules</text><polygon fill="#181818" points="459.5,304.01,469.5,308.01,459.5,312.01,463.5,308.01" style="stroke:#181818;stroke-width:1.0;"/><line style="stroke:#181818;stroke-width:1.0;" x1="260.5" x2="465.5" y1="308.01" y2="308.01"/><text fill="#000000" font-family="sans-serif" font-size="13" lengthAdjust="spacing" textLength="108" x="267.5" y="302.201">Get available Slots</text><polygon fill="#181818" points="271.5,335.716,261.5,339.716,271.5,343.716,267.5,339.716" style="stroke:#181818;stroke-width:1.0;"/><line style="stroke:#181818;stroke-width:1.0;stroke-dasharray:2.0,2.0;" x1="265.5" x2="475.5" y1="339.716" y2="339.716"/><text fill="#000000" font-family="sans-serif" font-size="13" lengthAdjust="spacing" textLength="85" x="277.5" y="333.907">Available Slots</text><polygon fill="#181818" points="238.5,367.4221,248.5,371.4221,238.5,375.4221,242.5,371.4221" style="stroke:#181818;stroke-width:1.0;"/><line style="stroke:#181818;stroke-width:1.0;" x1="43.5" x2="244.5" y1="371.4221" y2="371.4221"/><text fill="#000000" font-family="sans-serif" font-size="13" lengthAdjust="spacing" textLength="60" x="50.5" y="365.6131">Select slot</text><path d="M179,386.4221 L246.2188,386.4221 L246.2188,396.1281 L236.2188,406.1281 L179,406.1281 L179,386.4221 " fill="#EEEEEE" style="stroke:#000000;stroke-width:1.5;"/><rect fill="none" height="83.118" style="stroke:#000000;stroke-width:1.5;" width="376" x="179" y="386.4221"/><text fill="#000000" font-family="sans-serif" font-size="13" font-weight="bold" lengthAdjust="spacing" textLength="22.2188" x="194" y="401.3191">opt</text><text fill="#000000" font-family="sans-serif" font-size="11" font-weight="bold" lengthAdjust="spacing" textLength="126.875" x="261.2188" y="400.181">[holding appointment]</text><polygon fill="#181818" points="459.5,425.8341,469.5,429.8341,459.5,433.8341,463.5,429.8341" style="stroke:#181818;stroke-width:1.0;"/><line style="stroke:#181818;stroke-width:1.0;" x1="260.5" x2="465.5" y1="429.8341" y2="429.8341"/><text fill="#000000" font-family="sans-serif" font-size="13" lengthAdjust="spacing" textLength="72" x="267.5" y="424.0251">Reserve slot</text><polygon fill="#181818" points="271.5,457.5401,261.5,461.5401,271.5,465.5401,267.5,461.5401" style="stroke:#181818;stroke-width:1.0;"/><line style="stroke:#181818;stroke-width:1.0;stroke-dasharray:2.0,2.0;" x1="265.5" x2="475.5" y1="461.5401" y2="461.5401"/><text fill="#000000" font-family="sans-serif" font-size="13" lengthAdjust="spacing" textLength="130" x="277.5" y="455.7311">Reserve slot response</text><path d="M10,483.5401 L77.2188,483.5401 L77.2188,493.2461 L67.2188,503.2461 L10,503.2461 L10,483.5401 " fill="#EEEEEE" style="stroke:#000000;stroke-width:1.5;"/><rect fill="none" height="114.8241" style="stroke:#000000;stroke-width:1.5;" width="545" x="10" y="483.5401"/><text fill="#000000" font-family="sans-serif" font-size="13" font-weight="bold" lengthAdjust="spacing" textLength="22.2188" x="25" y="498.4371">opt</text><text fill="#000000" font-family="sans-serif" font-size="11" font-weight="bold" lengthAdjust="spacing" textLength="128.2188" x="92.2188" y="497.299">[Patient does not exist]</text><polygon fill="#181818" points="238.5,522.9521,248.5,526.9521,238.5,530.9521,242.5,526.9521" style="stroke:#181818;stroke-width:1.0;"/><line style="stroke:#181818;stroke-width:1.0;" x1="43.5" x2="244.5" y1="526.9521" y2="526.9521"/><text fill="#000000" font-family="sans-serif" font-size="13" lengthAdjust="spacing" textLength="74" x="50.5" y="521.1431">Enter details</text><polygon fill="#181818" points="459.5,554.6582,469.5,558.6582,459.5,562.6582,463.5,558.6582" style="stroke:#181818;stroke-width:1.0;"/><line style="stroke:#181818;stroke-width:1.0;" x1="260.5" x2="465.5" y1="558.6582" y2="558.6582"/><text fill="#000000" font-family="sans-serif" font-size="13" lengthAdjust="spacing" textLength="85" x="267.5" y="552.8492">Create Patient</text><polygon fill="#181818" points="271.5,586.3642,261.5,590.3642,271.5,594.3642,267.5,590.3642" style="stroke:#181818;stroke-width:1.0;"/><line style="stroke:#181818;stroke-width:1.0;stroke-dasharray:2.0,2.0;" x1="265.5" x2="475.5" y1="590.3642" y2="590.3642"/><text fill="#000000" font-family="sans-serif" font-size="13" lengthAdjust="spacing" textLength="143" x="277.5" y="584.5552">Create Patient response</text><polygon fill="#181818" points="459.5,625.0702,469.5,629.0702,459.5,633.0702,463.5,629.0702" style="stroke:#181818;stroke-width:1.0;"/><line style="stroke:#181818;stroke-width:1.0;" x1="260.5" x2="465.5" y1="629.0702" y2="629.0702"/><text fill="#000000" font-family="sans-serif" font-size="13" lengthAdjust="spacing" textLength="113" x="267.5" y="623.2612">Book appointment</text><polygon fill="#181818" points="271.5,656.7762,261.5,660.7762,271.5,664.7762,267.5,660.7762" style="stroke:#181818;stroke-width:1.0;"/><line style="stroke:#181818;stroke-width:1.0;stroke-dasharray:2.0,2.0;" x1="265.5" x2="470.5" y1="660.7762" y2="660.7762"/><text fill="#000000" font-family="sans-serif" font-size="13" lengthAdjust="spacing" textLength="171" x="277.5" y="654.9672">Book appointment response</text><polygon fill="#181818" points="49.5,688.4822,39.5,692.4822,49.5,696.4822,45.5,692.4822" style="stroke:#181818;stroke-width:1.0;"/><line style="stroke:#181818;stroke-width:1.0;stroke-dasharray:2.0,2.0;" x1="43.5" x2="254.5" y1="692.4822" y2="692.4822"/><text fill="#000000" font-family="sans-serif" font-size="13" lengthAdjust="spacing" textLength="183" x="55.5" y="686.6732">Confirm appointment booking</text><!--SRC=[bLFDJiCm3BxtAQpT-m8x8C64u0QYsWDuYQ4HMH8bNiNZav-ETct7kakTMjzVxHG5Mm_xG1umm2dMog5d9PH3mx1fH4lof9NvWfrMP7YJS28Vho8RyXtvZ0pvM5KeM7N8L2pI0-g7NcSBRuxCMVGFsR-Naj15Qmiln80TAeq7JV1AgBaLw2dPAa5XaEZTIu6w7ba-_YSWQIenJToG9i5pxisu_PZkJZdmvk4A-hgbjdotNUQidaE8yCewXjPgcQu0EcULuMFQ8C1yA1-KJuK8CBK1M8et9e6duAm95B7pc6HaZlEEd9sbfG0cikX7XMGu_Ovdmx4XYUC0mcBYdQTaq2kkpdn9kvrwRlnaxVV5FDTiSaeQZCy62Psc42DQywdyyG9-YFounuKRCEhqV-YeamH_0G00]--></g></svg>