<?xml version="1.0" encoding="us-ascii" standalone="no"?><svg xmlns="http://www.w3.org/2000/svg" xmlns:xlink="http://www.w3.org/1999/xlink" contentStyleType="text/css" height="1109px" preserveAspectRatio="none" style="width:922px;height:1109px;background:#FFFFFF;" version="1.1" viewBox="0 0 922 1109" width="922px" zoomAndPan="magnify"><defs/><g><rect fill="#FFFFFF" height="913.4745" style="stroke:#181818;stroke-width:1.0;" width="10" x="18.5" y="94.0679"/><rect fill="#FFFFFF" height="889.7685" style="stroke:#181818;stroke-width:1.0;" width="10" x="235.5" y="117.7739"/><rect fill="#FFFFFF" height="158.5301" style="stroke:#181818;stroke-width:1.0;" width="10" x="456.5" y="149.4799"/><rect fill="#FFFFFF" height="285.3541" style="stroke:#181818;stroke-width:1.0;" width="10" x="456.5" y="371.4221"/><rect fill="#FFFFFF" height="95.118" style="stroke:#181818;stroke-width:1.0;" width="10" x="456.5" y="746.8943"/><rect fill="#FFFFFF" height="95.118" style="stroke:#181818;stroke-width:1.0;" width="10" x="456.5" y="880.7183"/><rect fill="#FFFFFF" height="63.412" style="stroke:#181818;stroke-width:1.0;" width="10" x="677.5" y="181.186"/><rect fill="#FFFFFF" height="63.412" style="stroke:#181818;stroke-width:1.0;" width="10" x="677.5" y="403.1281"/><rect fill="#FFFFFF" height="63.412" style="stroke:#181818;stroke-width:1.0;" width="10" x="677.5" y="529.9521"/><rect fill="#FFFFFF" height="31.706" style="stroke:#181818;stroke-width:1.0;" width="10" x="677.5" y="778.6003"/><rect fill="#FFFFFF" height="31.706" style="stroke:#181818;stroke-width:1.0;" width="10" x="677.5" y="912.4243"/><rect fill="#FFFFFF" height="63.412" style="stroke:#181818;stroke-width:1.0;" width="10" x="836.5" y="212.892"/><rect fill="#FFFFFF" height="63.412" style="stroke:#181818;stroke-width:1.0;" width="10" x="836.5" y="434.8341"/><rect fill="#FFFFFF" height="63.412" style="stroke:#181818;stroke-width:1.0;" width="10" x="836.5" y="561.6582"/><rect fill="none" height="146.5301" style="stroke:#000000;stroke-width:1.5;" width="603" x="164" y="703.4822"/><line style="stroke:#181818;stroke-width:0.5;stroke-dasharray:5.0,5.0;" x1="23" x2="23" y1="84.0679" y2="1025.5424"/><line style="stroke:#181818;stroke-width:0.5;stroke-dasharray:5.0,5.0;" x1="240" x2="240" y1="84.0679" y2="1025.5424"/><line style="stroke:#181818;stroke-width:0.5;stroke-dasharray:5.0,5.0;" x1="461" x2="461" y1="84.0679" y2="1025.5424"/><line style="stroke:#181818;stroke-width:0.5;stroke-dasharray:5.0,5.0;" x1="682" x2="682" y1="84.0679" y2="1025.5424"/><line style="stroke:#181818;stroke-width:0.5;stroke-dasharray:5.0,5.0;" x1="841" x2="841" y1="84.0679" y2="1025.5424"/><text fill="#000000" font-family="sans-serif" font-size="14" lengthAdjust="spacing" textLength="31" x="5" y="79.9659">User</text><ellipse cx="23.5" cy="13.5" fill="#E2E2F0" rx="8" ry="8" style="stroke:#181818;stroke-width:0.5;"/><path d="M23.5,21.5 L23.5,48.5 M10.5,29.5 L36.5,29.5 M23.5,48.5 L10.5,63.5 M23.5,48.5 L36.5,63.5 " fill="none" style="stroke:#181818;stroke-width:0.5;"/><text fill="#000000" font-family="sans-serif" font-size="14" lengthAdjust="spacing" textLength="31" x="5" y="1039.5083">User</text><ellipse cx="23.5" cy="1052.1103" fill="#E2E2F0" rx="8" ry="8" style="stroke:#181818;stroke-width:0.5;"/><path d="M23.5,1060.1103 L23.5,1087.1103 M10.5,1068.1103 L36.5,1068.1103 M23.5,1087.1103 L10.5,1102.1103 M23.5,1087.1103 L36.5,1102.1103 " fill="none" style="stroke:#181818;stroke-width:0.5;"/><rect fill="#E2E2F0" height="33.0679" rx="2.5" ry="2.5" style="stroke:#181818;stroke-width:0.5;" width="133" x="174" y="50"/><text fill="#000000" font-family="sans-serif" font-size="14" lengthAdjust="spacing" textLength="119" x="181" y="71.9659">Scheduling Client</text><rect fill="#E2E2F0" height="33.0679" rx="2.5" ry="2.5" style="stroke:#181818;stroke-width:0.5;" width="133" x="174" y="1024.5424"/><text fill="#000000" font-family="sans-serif" font-size="14" lengthAdjust="spacing" textLength="119" x="181" y="1046.5083">Scheduling Client</text><rect fill="#E2E2F0" height="33.0679" rx="2.5" ry="2.5" style="stroke:#181818;stroke-width:0.5;" width="151" x="386" y="50"/><text fill="#000000" font-family="sans-serif" font-size="14" lengthAdjust="spacing" textLength="137" x="393" y="71.9659">Scheduling Platform</text><rect fill="#E2E2F0" height="33.0679" rx="2.5" ry="2.5" style="stroke:#181818;stroke-width:0.5;" width="151" x="386" y="1024.5424"/><text fill="#000000" font-family="sans-serif" font-size="14" lengthAdjust="spacing" textLength="137" x="393" y="1046.5083">Scheduling Platform</text><rect fill="#E2E2F0" height="33.0679" rx="2.5" ry="2.5" style="stroke:#181818;stroke-width:0.5;" width="149" x="608" y="50"/><text fill="#000000" font-family="sans-serif" font-size="14" lengthAdjust="spacing" textLength="135" x="615" y="71.9659">Scheduling Server 1</text><rect fill="#E2E2F0" height="33.0679" rx="2.5" ry="2.5" style="stroke:#181818;stroke-width:0.5;" width="149" x="608" y="1024.5424"/><text fill="#000000" font-family="sans-serif" font-size="14" lengthAdjust="spacing" textLength="135" x="615" y="1046.5083">Scheduling Server 1</text><rect fill="#E2E2F0" height="33.0679" rx="2.5" ry="2.5" style="stroke:#181818;stroke-width:0.5;" width="149" x="767" y="50"/><text fill="#000000" font-family="sans-serif" font-size="14" lengthAdjust="spacing" textLength="135" x="774" y="71.9659">Scheduling Server 2</text><rect fill="#E2E2F0" height="33.0679" rx="2.5" ry="2.5" style="stroke:#181818;stroke-width:0.5;" width="149" x="767" y="1024.5424"/><text fill="#000000" font-family="sans-serif" font-size="14" lengthAdjust="spacing" textLength="135" x="774" y="1046.5083">Scheduling Server 2</text><rect fill="#FFFFFF" height="913.4745" style="stroke:#181818;stroke-width:1.0;" width="10" x="18.5" y="94.0679"/><rect fill="#FFFFFF" height="889.7685" style="stroke:#181818;stroke-width:1.0;" width="10" x="235.5" y="117.7739"/><rect fill="#FFFFFF" height="158.5301" style="stroke:#181818;stroke-width:1.0;" width="10" x="456.5" y="149.4799"/><rect fill="#FFFFFF" height="285.3541" style="stroke:#181818;stroke-width:1.0;" width="10" x="456.5" y="371.4221"/><rect fill="#FFFFFF" height="95.118" style="stroke:#181818;stroke-width:1.0;" width="10" x="456.5" y="746.8943"/><rect fill="#FFFFFF" height="95.118" style="stroke:#181818;stroke-width:1.0;" width="10" x="456.5" y="880.7183"/><rect fill="#FFFFFF" height="63.412" style="stroke:#181818;stroke-width:1.0;" width="10" x="677.5" y="181.186"/><rect fill="#FFFFFF" height="63.412" style="stroke:#181818;stroke-width:1.0;" width="10" x="677.5" y="403.1281"/><rect fill="#FFFFFF" height="63.412" style="stroke:#181818;stroke-width:1.0;" width="10" x="677.5" y="529.9521"/><rect fill="#FFFFFF" height="31.706" style="stroke:#181818;stroke-width:1.0;" width="10" x="677.5" y="778.6003"/><rect fill="#FFFFFF" height="31.706" style="stroke:#181818;stroke-width:1.0;" width="10" x="677.5" y="912.4243"/><rect fill="#FFFFFF" height="63.412" style="stroke:#181818;stroke-width:1.0;" width="10" x="836.5" y="212.892"/><rect fill="#FFFFFF" height="63.412" style="stroke:#181818;stroke-width:1.0;" width="10" x="836.5" y="434.8341"/><rect fill="#FFFFFF" height="63.412" style="stroke:#181818;stroke-width:1.0;" width="10" x="836.5" y="561.6582"/><polygon fill="#181818" points="223.5,113.7739,233.5,117.7739,223.5,121.7739,227.5,117.7739" style="stroke:#181818;stroke-width:1.0;"/><line style="stroke:#181818;stroke-width:1.0;" x1="28.5" x2="229.5" y1="117.7739" y2="117.7739"/><text fill="#000000" font-family="sans-serif" font-size="13" lengthAdjust="spacing" textLength="68" x="35.5" y="111.9649">Open client</text><polygon fill="#181818" points="444.5,145.4799,454.5,149.4799,444.5,153.4799,448.5,149.4799" style="stroke:#181818;stroke-width:1.0;"/><line style="stroke:#181818;stroke-width:1.0;" x1="245.5" x2="450.5" y1="149.4799" y2="149.4799"/><text fill="#000000" font-family="sans-serif" font-size="13" lengthAdjust="spacing" textLength="192" x="252.5" y="143.6709">Get available HealthcareServices</text><polygon fill="#181818" points="665.5,177.186,675.5,181.186,665.5,185.186,669.5,181.186" style="stroke:#181818;stroke-width:1.0;"/><line style="stroke:#181818;stroke-width:1.0;" x1="466.5" x2="671.5" y1="181.186" y2="181.186"/><text fill="#000000" font-family="sans-serif" font-size="13" lengthAdjust="spacing" textLength="192" x="473.5" y="175.377">Get available HealthcareServices</text><polygon fill="#181818" points="824.5,208.892,834.5,212.892,824.5,216.892,828.5,212.892" style="stroke:#181818;stroke-width:1.0;"/><line style="stroke:#181818;stroke-width:1.0;" x1="466.5" x2="830.5" y1="212.892" y2="212.892"/><text fill="#000000" font-family="sans-serif" font-size="13" lengthAdjust="spacing" textLength="192" x="473.5" y="207.083">Get available HealthcareServices</text><polygon fill="#181818" points="477.5,240.598,467.5,244.598,477.5,248.598,473.5,244.598" style="stroke:#181818;stroke-width:1.0;"/><line style="stroke:#181818;stroke-width:1.0;stroke-dasharray:2.0,2.0;" x1="471.5" x2="681.5" y1="244.598" y2="244.598"/><text fill="#000000" font-family="sans-serif" font-size="13" lengthAdjust="spacing" textLength="169" x="483.5" y="238.789">Available HealthcareServices</text><polygon fill="#181818" points="477.5,272.304,467.5,276.304,477.5,280.304,473.5,276.304" style="stroke:#181818;stroke-width:1.0;"/><line style="stroke:#181818;stroke-width:1.0;stroke-dasharray:2.0,2.0;" x1="471.5" x2="840.5" y1="276.304" y2="276.304"/><text fill="#000000" font-family="sans-serif" font-size="13" lengthAdjust="spacing" textLength="169" x="483.5" y="270.495">Available HealthcareServices</text><polygon fill="#181818" points="256.5,304.01,246.5,308.01,256.5,312.01,252.5,308.01" style="stroke:#181818;stroke-width:1.0;"/><line style="stroke:#181818;stroke-width:1.0;stroke-dasharray:2.0,2.0;" x1="250.5" x2="460.5" y1="308.01" y2="308.01"/><text fill="#000000" font-family="sans-serif" font-size="13" lengthAdjust="spacing" textLength="169" x="262.5" y="302.201">Available HealthcareServices</text><polygon fill="#181818" points="223.5,335.716,233.5,339.716,223.5,343.716,227.5,339.716" style="stroke:#181818;stroke-width:1.0;"/><line style="stroke:#181818;stroke-width:1.0;" x1="28.5" x2="229.5" y1="339.716" y2="339.716"/><text fill="#000000" font-family="sans-serif" font-size="13" lengthAdjust="spacing" textLength="145" x="35.5" y="333.907">Select HealthcareService</text><polygon fill="#181818" points="444.5,367.4221,454.5,371.4221,444.5,375.4221,448.5,371.4221" style="stroke:#181818;stroke-width:1.0;"/><line style="stroke:#181818;stroke-width:1.0;" x1="245.5" x2="450.5" y1="371.4221" y2="371.4221"/><text fill="#000000" font-family="sans-serif" font-size="13" lengthAdjust="spacing" textLength="144" x="252.5" y="365.6131">Find available Schedules</text><polygon fill="#181818" points="665.5,399.1281,675.5,403.1281,665.5,407.1281,669.5,403.1281" style="stroke:#181818;stroke-width:1.0;"/><line style="stroke:#181818;stroke-width:1.0;" x1="466.5" x2="671.5" y1="403.1281" y2="403.1281"/><text fill="#000000" font-family="sans-serif" font-size="13" lengthAdjust="spacing" textLength="144" x="473.5" y="397.3191">Find available Schedules</text><polygon fill="#181818" points="824.5,430.8341,834.5,434.8341,824.5,438.8341,828.5,434.8341" style="stroke:#181818;stroke-width:1.0;"/><line style="stroke:#181818;stroke-width:1.0;" x1="466.5" x2="830.5" y1="434.8341" y2="434.8341"/><text fill="#000000" font-family="sans-serif" font-size="13" lengthAdjust="spacing" textLength="144" x="473.5" y="429.0251">Find available Schedules</text><polygon fill="#181818" points="477.5,462.5401,467.5,466.5401,477.5,470.5401,473.5,466.5401" style="stroke:#181818;stroke-width:1.0;"/><line style="stroke:#181818;stroke-width:1.0;stroke-dasharray:2.0,2.0;" x1="471.5" x2="681.5" y1="466.5401" y2="466.5401"/><text fill="#000000" font-family="sans-serif" font-size="13" lengthAdjust="spacing" textLength="116" x="483.5" y="460.7311">Available Schedules</text><polygon fill="#181818" points="477.5,494.2461,467.5,498.2461,477.5,502.2461,473.5,498.2461" style="stroke:#181818;stroke-width:1.0;"/><line style="stroke:#181818;stroke-width:1.0;stroke-dasharray:2.0,2.0;" x1="471.5" x2="840.5" y1="498.2461" y2="498.2461"/><text fill="#000000" font-family="sans-serif" font-size="13" lengthAdjust="spacing" textLength="116" x="483.5" y="492.4371">Available Schedules</text><polygon fill="#181818" points="665.5,525.9521,675.5,529.9521,665.5,533.9521,669.5,529.9521" style="stroke:#181818;stroke-width:1.0;"/><line style="stroke:#181818;stroke-width:1.0;" x1="466.5" x2="671.5" y1="529.9521" y2="529.9521"/><text fill="#000000" font-family="sans-serif" font-size="13" lengthAdjust="spacing" textLength="113" x="473.5" y="524.1431">Find available Slots</text><polygon fill="#181818" points="824.5,557.6582,834.5,561.6582,824.5,565.6582,828.5,561.6582" style="stroke:#181818;stroke-width:1.0;"/><line style="stroke:#181818;stroke-width:1.0;" x1="466.5" x2="830.5" y1="561.6582" y2="561.6582"/><text fill="#000000" font-family="sans-serif" font-size="13" lengthAdjust="spacing" textLength="113" x="473.5" y="555.8492">Find available Slots</text><polygon fill="#181818" points="477.5,589.3642,467.5,593.3642,477.5,597.3642,473.5,593.3642" style="stroke:#181818;stroke-width:1.0;"/><line style="stroke:#181818;stroke-width:1.0;stroke-dasharray:2.0,2.0;" x1="471.5" x2="681.5" y1="593.3642" y2="593.3642"/><text fill="#000000" font-family="sans-serif" font-size="13" lengthAdjust="spacing" textLength="85" x="483.5" y="587.5552">Available Slots</text><polygon fill="#181818" points="477.5,621.0702,467.5,625.0702,477.5,629.0702,473.5,625.0702" style="stroke:#181818;stroke-width:1.0;"/><line style="stroke:#181818;stroke-width:1.0;stroke-dasharray:2.0,2.0;" x1="471.5" x2="840.5" y1="625.0702" y2="625.0702"/><text fill="#000000" font-family="sans-serif" font-size="13" lengthAdjust="spacing" textLength="85" x="483.5" y="619.2612">Available Slots</text><polygon fill="#181818" points="256.5,652.7762,246.5,656.7762,256.5,660.7762,252.5,656.7762" style="stroke:#181818;stroke-width:1.0;"/><line style="stroke:#181818;stroke-width:1.0;stroke-dasharray:2.0,2.0;" x1="250.5" x2="460.5" y1="656.7762" y2="656.7762"/><text fill="#000000" font-family="sans-serif" font-size="13" lengthAdjust="spacing" textLength="85" x="262.5" y="650.9672">Available Slots</text><polygon fill="#181818" points="223.5,684.4822,233.5,688.4822,223.5,692.4822,227.5,688.4822" style="stroke:#181818;stroke-width:1.0;"/><line style="stroke:#181818;stroke-width:1.0;" x1="28.5" x2="229.5" y1="688.4822" y2="688.4822"/><text fill="#000000" font-family="sans-serif" font-size="13" lengthAdjust="spacing" textLength="60" x="35.5" y="682.6732">Select slot</text><path d="M164,703.4822 L231,703.4822 L231,713.1882 L221,723.1882 L164,723.1882 L164,703.4822 " fill="#EEEEEE" style="stroke:#000000;stroke-width:1.5;"/><rect fill="none" height="146.5301" style="stroke:#000000;stroke-width:1.5;" width="603" x="164" y="703.4822"/><text fill="#000000" font-family="sans-serif" font-size="13" font-weight="bold" lengthAdjust="spacing" textLength="22" x="179" y="718.3792">opt</text><text fill="#000000" font-family="sans-serif" font-size="11" font-weight="bold" lengthAdjust="spacing" textLength="125" x="246" y="717.2411">[holding appointment]</text><polygon fill="#181818" points="444.5,742.8943,454.5,746.8943,444.5,750.8943,448.5,746.8943" style="stroke:#181818;stroke-width:1.0;"/><line style="stroke:#181818;stroke-width:1.0;" x1="245.5" x2="450.5" y1="746.8943" y2="746.8943"/><text fill="#000000" font-family="sans-serif" font-size="13" lengthAdjust="spacing" textLength="72" x="252.5" y="741.0853">Reserve slot</text><polygon fill="#181818" points="665.5,774.6003,675.5,778.6003,665.5,782.6003,669.5,778.6003" style="stroke:#181818;stroke-width:1.0;"/><line style="stroke:#181818;stroke-width:1.0;" x1="466.5" x2="671.5" y1="778.6003" y2="778.6003"/><text fill="#000000" font-family="sans-serif" font-size="13" lengthAdjust="spacing" textLength="72" x="473.5" y="772.7913">Reserve slot</text><polygon fill="#181818" points="477.5,806.3063,467.5,810.3063,477.5,814.3063,473.5,810.3063" style="stroke:#181818;stroke-width:1.0;"/><line style="stroke:#181818;stroke-width:1.0;stroke-dasharray:2.0,2.0;" x1="471.5" x2="681.5" y1="810.3063" y2="810.3063"/><text fill="#000000" font-family="sans-serif" font-size="13" lengthAdjust="spacing" textLength="130" x="483.5" y="804.4973">Reserve slot response</text><polygon fill="#181818" points="256.5,838.0123,246.5,842.0123,256.5,846.0123,252.5,842.0123" style="stroke:#181818;stroke-width:1.0;"/><line style="stroke:#181818;stroke-width:1.0;stroke-dasharray:2.0,2.0;" x1="250.5" x2="460.5" y1="842.0123" y2="842.0123"/><text fill="#000000" font-family="sans-serif" font-size="13" lengthAdjust="spacing" textLength="130" x="262.5" y="836.2033">Reserve slot response</text><polygon fill="#181818" points="444.5,876.7183,454.5,880.7183,444.5,884.7183,448.5,880.7183" style="stroke:#181818;stroke-width:1.0;"/><line style="stroke:#181818;stroke-width:1.0;" x1="245.5" x2="450.5" y1="880.7183" y2="880.7183"/><text fill="#000000" font-family="sans-serif" font-size="13" lengthAdjust="spacing" textLength="113" x="252.5" y="874.9093">Book appointment</text><polygon fill="#181818" points="665.5,908.4243,675.5,912.4243,665.5,916.4243,669.5,912.4243" style="stroke:#181818;stroke-width:1.0;"/><line style="stroke:#181818;stroke-width:1.0;" x1="466.5" x2="671.5" y1="912.4243" y2="912.4243"/><text fill="#000000" font-family="sans-serif" font-size="13" lengthAdjust="spacing" textLength="113" x="473.5" y="906.6153">Book appointment</text><polygon fill="#181818" points="477.5,940.1304,467.5,944.1304,477.5,948.1304,473.5,944.1304" style="stroke:#181818;stroke-width:1.0;"/><line style="stroke:#181818;stroke-width:1.0;stroke-dasharray:2.0,2.0;" x1="471.5" x2="681.5" y1="944.1304" y2="944.1304"/><text fill="#000000" font-family="sans-serif" font-size="13" lengthAdjust="spacing" textLength="171" x="483.5" y="938.3214">Book appointment response</text><polygon fill="#181818" points="256.5,971.8364,246.5,975.8364,256.5,979.8364,252.5,975.8364" style="stroke:#181818;stroke-width:1.0;"/><line style="stroke:#181818;stroke-width:1.0;stroke-dasharray:2.0,2.0;" x1="250.5" x2="460.5" y1="975.8364" y2="975.8364"/><text fill="#000000" font-family="sans-serif" font-size="13" lengthAdjust="spacing" textLength="171" x="262.5" y="970.0274">Book appointment response</text><polygon fill="#181818" points="34.5,1003.5424,24.5,1007.5424,34.5,1011.5424,30.5,1007.5424" style="stroke:#181818;stroke-width:1.0;"/><line style="stroke:#181818;stroke-width:1.0;stroke-dasharray:2.0,2.0;" x1="28.5" x2="239.5" y1="1007.5424" y2="1007.5424"/><text fill="#000000" font-family="sans-serif" font-size="13" lengthAdjust="spacing" textLength="183" x="40.5" y="1001.7334">Confirm appointment booking</text><!--SRC=[fPN1Si8W48RlFCMEznpCqKDdMcVQtjgfqmT0iZPC4HX0dxyGOu8D6DIBIPZzFtR_NP0ofmnyMpH0BHpyasXg76TSK-bWiM4jDWV1vG-i1KVf5Y6ETQ_Po4z1tKwPVHUh-uziz0RDqM-_xA9jM0yhoxdu-ZA-9eGonu_KuQcCy0FLKv_h2ZuqodFYGsJ_VNg4w7EsAtX31_H8kQ1RWV2ELBYMKODXCyxGZf2nmlubWCP2Ra75vQTWzLsmcenSgAgBCf-leHfCPJPo7uRLKPbLrAnIq63zfDqR5CZSL9xizIkNJMHgFsmtzNWUKT3R6o1bFHq9zxVoEiEVkr9BX7AFsP4155hHgH-m8QkV7-A9TdPkhLSGehI3LeacN7jKQyMbsuVx2Y0rnLzemzLuqW9CDmF8jIedZJm2oBiSoy6WrKfQz8gqst4QiLy5bA4Kb0r97kKNfNull2e_mdbfQbGc9loNZoMaRKYRK4GPIZax40XXabQmLdB7FJH6R3tJZn294Vq_NxGIz7y0]--></g></svg>