<?xml version="1.0" encoding="us-ascii" standalone="no"?><svg xmlns="http://www.w3.org/2000/svg" xmlns:xlink="http://www.w3.org/1999/xlink" contentStyleType="text/css" height="839px" preserveAspectRatio="none" style="width:1269px;height:839px;background:#FFFFFF;" version="1.1" viewBox="0 0 1269 839" width="1269px" zoomAndPan="magnify"><defs/><g><rect fill="#FFFFFF" height="647.585" style="stroke:#181818;stroke-width:1.0;" width="10" x="19" y="92.0146"/><rect fill="#FFFFFF" height="566.187" style="stroke:#181818;stroke-width:1.0;" width="10" x="317" y="113.814"/><rect fill="#FFFFFF" height="148.9966" style="stroke:#181818;stroke-width:1.0;" width="10" x="563" y="143.6133"/><rect fill="#FFFFFF" height="268.1938" style="stroke:#181818;stroke-width:1.0;" width="10" x="563" y="352.2085"/><rect fill="#FFFFFF" height="59.5986" style="stroke:#181818;stroke-width:1.0;" width="10" x="809" y="173.4126"/><rect fill="#FFFFFF" height="59.5986" style="stroke:#181818;stroke-width:1.0;" width="10" x="809" y="382.0078"/><rect fill="#FFFFFF" height="59.5986" style="stroke:#181818;stroke-width:1.0;" width="10" x="809" y="501.2051"/><rect fill="#FFFFFF" height="59.5986" style="stroke:#181818;stroke-width:1.0;" width="10" x="974" y="203.2119"/><rect fill="#FFFFFF" height="59.5986" style="stroke:#181818;stroke-width:1.0;" width="10" x="974" y="411.8071"/><rect fill="#FFFFFF" height="59.5986" style="stroke:#181818;stroke-width:1.0;" width="10" x="974" y="531.0044"/><rect fill="#FFFFFF" height="38.7993" style="stroke:#181818;stroke-width:1.0;" width="10" x="1160" y="709.8003"/><line style="stroke:#181818;stroke-width:0.5;stroke-dasharray:5.0,5.0;" x1="24" x2="24" y1="82.0146" y2="757.5996"/><line style="stroke:#181818;stroke-width:0.5;stroke-dasharray:5.0,5.0;" x1="322" x2="322" y1="82.0146" y2="757.5996"/><line style="stroke:#181818;stroke-width:0.5;stroke-dasharray:5.0,5.0;" x1="567.5" x2="567.5" y1="82.0146" y2="757.5996"/><line style="stroke:#181818;stroke-width:0.5;stroke-dasharray:5.0,5.0;" x1="813.5" x2="813.5" y1="82.0146" y2="757.5996"/><line style="stroke:#181818;stroke-width:0.5;stroke-dasharray:5.0,5.0;" x1="978.5" x2="978.5" y1="82.0146" y2="757.5996"/><line style="stroke:#181818;stroke-width:0.5;stroke-dasharray:5.0,5.0;" x1="1164.5" x2="1164.5" y1="82.0146" y2="757.5996"/><text fill="#000000" font-family="sans-serif" font-size="14" lengthAdjust="spacing" textLength="32" x="5" y="79.0752">User</text><ellipse cx="24" cy="13.5" fill="#E2E2F0" rx="8" ry="8" style="stroke:#181818;stroke-width:0.5;"/><path d="M24,21.5 L24,48.5 M11,29.5 L37,29.5 M24,48.5 L11,63.5 M24,48.5 L37,63.5 " fill="none" style="stroke:#181818;stroke-width:0.5;"/><text fill="#000000" font-family="sans-serif" font-size="14" lengthAdjust="spacing" textLength="32" x="5" y="770.6748">User</text><ellipse cx="24" cy="782.1143" fill="#E2E2F0" rx="8" ry="8" style="stroke:#181818;stroke-width:0.5;"/><path d="M24,790.1143 L24,817.1143 M11,798.1143 L37,798.1143 M24,817.1143 L11,832.1143 M24,817.1143 L37,832.1143 " fill="none" style="stroke:#181818;stroke-width:0.5;"/><rect fill="#E2E2F0" height="31.0146" rx="2.5" ry="2.5" style="stroke:#181818;stroke-width:0.5;" width="176" x="234" y="50"/><text fill="#000000" font-family="sans-serif" font-size="14" lengthAdjust="spacing" textLength="162" x="241" y="71.0752">Initial Scheduling Client</text><rect fill="#E2E2F0" height="31.0146" rx="2.5" ry="2.5" style="stroke:#181818;stroke-width:0.5;" width="176" x="234" y="756.5996"/><text fill="#000000" font-family="sans-serif" font-size="14" lengthAdjust="spacing" textLength="162" x="241" y="777.6748">Initial Scheduling Client</text><rect fill="#E2E2F0" height="31.0146" rx="2.5" ry="2.5" style="stroke:#181818;stroke-width:0.5;" width="153" x="491.5" y="50"/><text fill="#000000" font-family="sans-serif" font-size="14" lengthAdjust="spacing" textLength="139" x="498.5" y="71.0752">Scheduling Platform</text><rect fill="#E2E2F0" height="31.0146" rx="2.5" ry="2.5" style="stroke:#181818;stroke-width:0.5;" width="153" x="491.5" y="756.5996"/><text fill="#000000" font-family="sans-serif" font-size="14" lengthAdjust="spacing" textLength="139" x="498.5" y="777.6748">Scheduling Platform</text><rect fill="#E2E2F0" height="31.0146" rx="2.5" ry="2.5" style="stroke:#181818;stroke-width:0.5;" width="155" x="736.5" y="50"/><text fill="#000000" font-family="sans-serif" font-size="14" lengthAdjust="spacing" textLength="141" x="743.5" y="71.0752">Scheduling Server 1</text><rect fill="#E2E2F0" height="31.0146" rx="2.5" ry="2.5" style="stroke:#181818;stroke-width:0.5;" width="155" x="736.5" y="756.5996"/><text fill="#000000" font-family="sans-serif" font-size="14" lengthAdjust="spacing" textLength="141" x="743.5" y="777.6748">Scheduling Server 1</text><rect fill="#E2E2F0" height="31.0146" rx="2.5" ry="2.5" style="stroke:#181818;stroke-width:0.5;" width="155" x="901.5" y="50"/><text fill="#000000" font-family="sans-serif" font-size="14" lengthAdjust="spacing" textLength="141" x="908.5" y="71.0752">Scheduling Server 2</text><rect fill="#E2E2F0" height="31.0146" rx="2.5" ry="2.5" style="stroke:#181818;stroke-width:0.5;" width="155" x="901.5" y="756.5996"/><text fill="#000000" font-family="sans-serif" font-size="14" lengthAdjust="spacing" textLength="141" x="908.5" y="777.6748">Scheduling Server 2</text><rect fill="#E2E2F0" height="31.0146" rx="2.5" ry="2.5" style="stroke:#181818;stroke-width:0.5;" width="197" x="1066.5" y="50"/><text fill="#000000" font-family="sans-serif" font-size="14" lengthAdjust="spacing" textLength="183" x="1073.5" y="71.0752">External Scheduling Client</text><rect fill="#E2E2F0" height="31.0146" rx="2.5" ry="2.5" style="stroke:#181818;stroke-width:0.5;" width="197" x="1066.5" y="756.5996"/><text fill="#000000" font-family="sans-serif" font-size="14" lengthAdjust="spacing" textLength="183" x="1073.5" y="777.6748">External Scheduling Client</text><rect fill="#FFFFFF" height="647.585" style="stroke:#181818;stroke-width:1.0;" width="10" x="19" y="92.0146"/><rect fill="#FFFFFF" height="566.187" style="stroke:#181818;stroke-width:1.0;" width="10" x="317" y="113.814"/><rect fill="#FFFFFF" height="148.9966" style="stroke:#181818;stroke-width:1.0;" width="10" x="563" y="143.6133"/><rect fill="#FFFFFF" height="268.1938" style="stroke:#181818;stroke-width:1.0;" width="10" x="563" y="352.2085"/><rect fill="#FFFFFF" height="59.5986" style="stroke:#181818;stroke-width:1.0;" width="10" x="809" y="173.4126"/><rect fill="#FFFFFF" height="59.5986" style="stroke:#181818;stroke-width:1.0;" width="10" x="809" y="382.0078"/><rect fill="#FFFFFF" height="59.5986" style="stroke:#181818;stroke-width:1.0;" width="10" x="809" y="501.2051"/><rect fill="#FFFFFF" height="59.5986" style="stroke:#181818;stroke-width:1.0;" width="10" x="974" y="203.2119"/><rect fill="#FFFFFF" height="59.5986" style="stroke:#181818;stroke-width:1.0;" width="10" x="974" y="411.8071"/><rect fill="#FFFFFF" height="59.5986" style="stroke:#181818;stroke-width:1.0;" width="10" x="974" y="531.0044"/><rect fill="#FFFFFF" height="38.7993" style="stroke:#181818;stroke-width:1.0;" width="10" x="1160" y="709.8003"/><polygon fill="#181818" points="305,109.814,315,113.814,305,117.814,309,113.814" style="stroke:#181818;stroke-width:1.0;"/><line style="stroke:#181818;stroke-width:1.0;" x1="29" x2="311" y1="113.814" y2="113.814"/><text fill="#000000" font-family="sans-serif" font-size="13" lengthAdjust="spacing" textLength="75" x="36" y="109.0845">Open client</text><polygon fill="#181818" points="551,139.6133,561,143.6133,551,147.6133,555,143.6133" style="stroke:#181818;stroke-width:1.0;"/><line style="stroke:#181818;stroke-width:1.0;" x1="327" x2="557" y1="143.6133" y2="143.6133"/><text fill="#000000" font-family="sans-serif" font-size="13" lengthAdjust="spacing" textLength="217" x="334" y="138.8838">Get available HealthcareServices</text><polygon fill="#181818" points="797,169.4126,807,173.4126,797,177.4126,801,173.4126" style="stroke:#181818;stroke-width:1.0;"/><line style="stroke:#181818;stroke-width:1.0;" x1="573" x2="803" y1="173.4126" y2="173.4126"/><text fill="#000000" font-family="sans-serif" font-size="13" lengthAdjust="spacing" textLength="217" x="580" y="168.6831">Get available HealthcareServices</text><polygon fill="#181818" points="962,199.2119,972,203.2119,962,207.2119,966,203.2119" style="stroke:#181818;stroke-width:1.0;"/><line style="stroke:#181818;stroke-width:1.0;" x1="573" x2="968" y1="203.2119" y2="203.2119"/><text fill="#000000" font-family="sans-serif" font-size="13" lengthAdjust="spacing" textLength="217" x="580" y="198.4824">Get available HealthcareServices</text><polygon fill="#181818" points="584,229.0112,574,233.0112,584,237.0112,580,233.0112" style="stroke:#181818;stroke-width:1.0;"/><line style="stroke:#181818;stroke-width:1.0;stroke-dasharray:2.0,2.0;" x1="578" x2="813" y1="233.0112" y2="233.0112"/><text fill="#000000" font-family="sans-serif" font-size="13" lengthAdjust="spacing" textLength="190" x="590" y="228.2817">Available HealthcareServices</text><polygon fill="#181818" points="584,258.8105,574,262.8105,584,266.8105,580,262.8105" style="stroke:#181818;stroke-width:1.0;"/><line style="stroke:#181818;stroke-width:1.0;stroke-dasharray:2.0,2.0;" x1="578" x2="978" y1="262.8105" y2="262.8105"/><text fill="#000000" font-family="sans-serif" font-size="13" lengthAdjust="spacing" textLength="190" x="590" y="258.0811">Available HealthcareServices</text><polygon fill="#181818" points="338,288.6099,328,292.6099,338,296.6099,334,292.6099" style="stroke:#181818;stroke-width:1.0;"/><line style="stroke:#181818;stroke-width:1.0;stroke-dasharray:2.0,2.0;" x1="332" x2="567" y1="292.6099" y2="292.6099"/><text fill="#000000" font-family="sans-serif" font-size="13" lengthAdjust="spacing" textLength="190" x="344" y="287.8804">Available HealthcareServices</text><polygon fill="#181818" points="305,318.4092,315,322.4092,305,326.4092,309,322.4092" style="stroke:#181818;stroke-width:1.0;"/><line style="stroke:#181818;stroke-width:1.0;" x1="29" x2="311" y1="322.4092" y2="322.4092"/><text fill="#000000" font-family="sans-serif" font-size="13" lengthAdjust="spacing" textLength="167" x="36" y="317.6797">Select HealthcareService</text><polygon fill="#181818" points="551,348.2085,561,352.2085,551,356.2085,555,352.2085" style="stroke:#181818;stroke-width:1.0;"/><line style="stroke:#181818;stroke-width:1.0;" x1="327" x2="557" y1="352.2085" y2="352.2085"/><text fill="#000000" font-family="sans-serif" font-size="13" lengthAdjust="spacing" textLength="157" x="334" y="347.479">Get available Schedules</text><polygon fill="#181818" points="797,378.0078,807,382.0078,797,386.0078,801,382.0078" style="stroke:#181818;stroke-width:1.0;"/><line style="stroke:#181818;stroke-width:1.0;" x1="573" x2="803" y1="382.0078" y2="382.0078"/><text fill="#000000" font-family="sans-serif" font-size="13" lengthAdjust="spacing" textLength="157" x="580" y="377.2783">Get available Schedules</text><polygon fill="#181818" points="962,407.8071,972,411.8071,962,415.8071,966,411.8071" style="stroke:#181818;stroke-width:1.0;"/><line style="stroke:#181818;stroke-width:1.0;" x1="573" x2="968" y1="411.8071" y2="411.8071"/><text fill="#000000" font-family="sans-serif" font-size="13" lengthAdjust="spacing" textLength="157" x="580" y="407.0776">Get available Schedules</text><polygon fill="#181818" points="584,437.6064,574,441.6064,584,445.6064,580,441.6064" style="stroke:#181818;stroke-width:1.0;"/><line style="stroke:#181818;stroke-width:1.0;stroke-dasharray:2.0,2.0;" x1="578" x2="813" y1="441.6064" y2="441.6064"/><text fill="#000000" font-family="sans-serif" font-size="13" lengthAdjust="spacing" textLength="130" x="590" y="436.877">Available Schedules</text><polygon fill="#181818" points="584,467.4058,574,471.4058,584,475.4058,580,471.4058" style="stroke:#181818;stroke-width:1.0;"/><line style="stroke:#181818;stroke-width:1.0;stroke-dasharray:2.0,2.0;" x1="578" x2="978" y1="471.4058" y2="471.4058"/><text fill="#000000" font-family="sans-serif" font-size="13" lengthAdjust="spacing" textLength="130" x="590" y="466.6763">Available Schedules</text><polygon fill="#181818" points="797,497.2051,807,501.2051,797,505.2051,801,501.2051" style="stroke:#181818;stroke-width:1.0;"/><line style="stroke:#181818;stroke-width:1.0;" x1="573" x2="803" y1="501.2051" y2="501.2051"/><text fill="#000000" font-family="sans-serif" font-size="13" lengthAdjust="spacing" textLength="123" x="580" y="496.4756">Get available Slots</text><polygon fill="#181818" points="962,527.0044,972,531.0044,962,535.0044,966,531.0044" style="stroke:#181818;stroke-width:1.0;"/><line style="stroke:#181818;stroke-width:1.0;" x1="573" x2="968" y1="531.0044" y2="531.0044"/><text fill="#000000" font-family="sans-serif" font-size="13" lengthAdjust="spacing" textLength="123" x="580" y="526.2749">Get available Slots</text><polygon fill="#181818" points="584,556.8037,574,560.8037,584,564.8037,580,560.8037" style="stroke:#181818;stroke-width:1.0;"/><line style="stroke:#181818;stroke-width:1.0;stroke-dasharray:2.0,2.0;" x1="578" x2="813" y1="560.8037" y2="560.8037"/><text fill="#000000" font-family="sans-serif" font-size="13" lengthAdjust="spacing" textLength="96" x="590" y="556.0742">Available Slots</text><polygon fill="#181818" points="584,586.603,574,590.603,584,594.603,580,590.603" style="stroke:#181818;stroke-width:1.0;"/><line style="stroke:#181818;stroke-width:1.0;stroke-dasharray:2.0,2.0;" x1="578" x2="978" y1="590.603" y2="590.603"/><text fill="#000000" font-family="sans-serif" font-size="13" lengthAdjust="spacing" textLength="96" x="590" y="585.8735">Available Slots</text><polygon fill="#181818" points="338,616.4023,328,620.4023,338,624.4023,334,620.4023" style="stroke:#181818;stroke-width:1.0;"/><line style="stroke:#181818;stroke-width:1.0;stroke-dasharray:2.0,2.0;" x1="332" x2="567" y1="620.4023" y2="620.4023"/><text fill="#000000" font-family="sans-serif" font-size="13" lengthAdjust="spacing" textLength="96" x="344" y="615.6729">Available Slots</text><polygon fill="#181818" points="305,646.2017,315,650.2017,305,654.2017,309,650.2017" style="stroke:#181818;stroke-width:1.0;"/><line style="stroke:#181818;stroke-width:1.0;" x1="29" x2="311" y1="650.2017" y2="650.2017"/><text fill="#000000" font-family="sans-serif" font-size="13" lengthAdjust="spacing" textLength="264" x="36" y="645.4722">Select slot requiring external scheduling</text><polygon fill="#181818" points="40,676.001,30,680.001,40,684.001,36,680.001" style="stroke:#181818;stroke-width:1.0;"/><line style="stroke:#181818;stroke-width:1.0;" x1="34" x2="321" y1="680.001" y2="680.001"/><text fill="#000000" font-family="sans-serif" font-size="13" lengthAdjust="spacing" textLength="246" x="46" y="675.2715">Redirect to external scheduling client</text><line style="stroke:#A80036;stroke-width:2.0;" x1="313" x2="331" y1="671.001" y2="689.001"/><line style="stroke:#A80036;stroke-width:2.0;" x1="313" x2="331" y1="689.001" y2="671.001"/><polygon fill="#181818" points="1148,705.8003,1158,709.8003,1148,713.8003,1152,709.8003" style="stroke:#181818;stroke-width:1.0;"/><line style="stroke:#181818;stroke-width:1.0;" x1="29" x2="1154" y1="709.8003" y2="709.8003"/><text fill="#000000" font-family="sans-serif" font-size="13" lengthAdjust="spacing" textLength="118" x="36" y="705.0708">Book appointment</text><polygon fill="#181818" points="35,735.5996,25,739.5996,35,743.5996,31,739.5996" style="stroke:#181818;stroke-width:1.0;"/><line style="stroke:#181818;stroke-width:1.0;stroke-dasharray:2.0,2.0;" x1="29" x2="1159" y1="739.5996" y2="739.5996"/><text fill="#000000" font-family="sans-serif" font-size="13" lengthAdjust="spacing" textLength="191" x="41" y="734.8701">Confirm appointment booking</text><!--SRC=[fPJFJiCm3CRlVGfhznxMOmz8C27W16BY0RpKOn5PKX9lWhUdwT-KTMktNfew-loJ_Jao2ZOMFXnPG0U7uenoj2o5p54pB5wqP8aArc97sK59_Gah9Kdpmkj5-TlF29Hl2dbhxBxKvdLmLhqcUopAM9Pgv-_zpN9Cd_JrIL__-CDazKW3ZIYAKB0y8bFbXFz0V5UhKdZDIJSzjyewhWwlRXfDuOaOy8XIuKOHF1CgtWcqvEkKWbm7wSofVpoey-0QLEZS42ov2PP47HVYkDVc_ILKHaELTTpPi2HeCmw6DHNKMdyoxZKf4doQFc7MzMkRCU81mjMJlSIODj2ESFiSBpEIQAeXol0iCyxaJpIYp9vXmjdyyVTxaZlwP5sH0PQ-3zBwXKVD4dJj4WpUi6Uay4wPj3wNpP2-MNCPERRcjmd_5T0iqXGUZFa2p7CZDUy7zcMxSljXPK5LqShehInS2IYmAR2- -j2DjhBUylu3]--></g></svg>