<svg xmlns="http://www.w3.org/2000/svg" xmlns:xlink="http://www.w3.org/1999/xlink" contentStyleType="text/css" data-diagram-type="SEQUENCE" height="621px" preserveAspectRatio="none" style="width:584px;height:621px;background:#FFFFFF;" version="1.1" viewBox="0 0 584 621" width="584px" zoomAndPan="magnify"><defs/><g><g><title>User</title><rect fill="#FFFFFF" height="430.9922" style="stroke:#181818;stroke-width:1;" width="10" x="18.9551" y="91.2969"/></g><g><title>Scheduling Client</title><rect fill="#FFFFFF" height="409.8594" style="stroke:#181818;stroke-width:1;" width="10" x="247.8472" y="112.4297"/></g><g><title>Scheduling Server</title><rect fill="#FFFFFF" height="29.1328" style="stroke:#181818;stroke-width:1;" width="10" x="492.9214" y="141.5625"/></g><g><title>Scheduling Server</title><rect fill="#FFFFFF" height="29.1328" style="stroke:#181818;stroke-width:1;" width="10" x="492.9214" y="228.9609"/></g><g><title>Scheduling Server</title><rect fill="#FFFFFF" height="29.1328" style="stroke:#181818;stroke-width:1;" width="10" x="492.9214" y="287.2266"/></g><g><title>Scheduling Server</title><rect fill="#FFFFFF" height="29.1328" style="stroke:#181818;stroke-width:1;" width="10" x="492.9214" y="398.7578"/></g><g><title>Scheduling Server</title><rect fill="#FFFFFF" height="58.2656" style="stroke:#181818;stroke-width:1;" width="10" x="492.9214" y="464.0234"/></g><rect fill="none" height="75.3984" style="stroke:#000000;stroke-width:1.5;" width="404.1138" x="174.6724" y="360.4922"/><g><title>User</title><rect fill="#000000" fill-opacity="0.00000" height="458.9922" width="8" x="19.9551" y="81.2969"/><line style="stroke:#181818;stroke-width:0.5;stroke-dasharray:5,5;" x1="23" x2="23" y1="81.2969" y2="540.2891"/></g><g><title>Scheduling Client</title><rect fill="#000000" fill-opacity="0.00000" height="458.9922" width="8" x="248.8472" y="81.2969"/><line style="stroke:#181818;stroke-width:0.5;stroke-dasharray:5,5;" x1="252.6724" x2="252.6724" y1="81.2969" y2="540.2891"/></g><g><title>Scheduling Server</title><rect fill="#000000" fill-opacity="0.00000" height="458.9922" width="8" x="493.9214" y="81.2969"/><line style="stroke:#181818;stroke-width:0.5;stroke-dasharray:5,5;" x1="497.0566" x2="497.0566" y1="81.2969" y2="540.2891"/></g><g class="participant participant-head" data-participant="user"><text fill="#000000" font-family="sans-serif" font-size="14" lengthAdjust="spacing" textLength="31.9102" x="5" y="77.9951">User</text><ellipse cx="23.9551" cy="13.5" fill="#E2E2F0" rx="8" ry="8" style="stroke:#181818;stroke-width:0.5;"/><path d="M23.9551,21.5 L23.9551,48.5 M10.9551,29.5 L36.9551,29.5 M23.9551,48.5 L10.9551,63.5 M23.9551,48.5 L36.9551,63.5" fill="none" style="stroke:#181818;stroke-width:0.5;"/></g><g class="participant participant-tail" data-participant="user"><text fill="#000000" font-family="sans-serif" font-size="14" lengthAdjust="spacing" textLength="31.9102" x="5" y="552.2842">User</text><ellipse cx="23.9551" cy="564.0859" fill="#E2E2F0" rx="8" ry="8" style="stroke:#181818;stroke-width:0.5;"/><path d="M23.9551,572.0859 L23.9551,599.0859 M10.9551,580.0859 L36.9551,580.0859 M23.9551,599.0859 L10.9551,614.0859 M23.9551,599.0859 L36.9551,614.0859" fill="none" style="stroke:#181818;stroke-width:0.5;"/></g><g class="participant participant-head" data-participant="client"><rect fill="#E2E2F0" height="30.2969" rx="2.5" ry="2.5" style="stroke:#181818;stroke-width:0.5;" width="136.3496" x="184.6724" y="50"/><text fill="#000000" font-family="sans-serif" font-size="14" lengthAdjust="spacing" textLength="122.3496" x="191.6724" y="69.9951">Scheduling Client</text></g><g class="participant participant-tail" data-participant="client"><rect fill="#E2E2F0" height="30.2969" rx="2.5" ry="2.5" style="stroke:#181818;stroke-width:0.5;" width="136.3496" x="184.6724" y="539.2891"/><text fill="#000000" font-family="sans-serif" font-size="14" lengthAdjust="spacing" textLength="122.3496" x="191.6724" y="559.2842">Scheduling Client</text></g><g class="participant participant-head" data-participant="server"><rect fill="#E2E2F0" height="30.2969" rx="2.5" ry="2.5" style="stroke:#181818;stroke-width:0.5;" width="141.7295" x="427.0566" y="50"/><text fill="#000000" font-family="sans-serif" font-size="14" lengthAdjust="spacing" textLength="127.7295" x="434.0566" y="69.9951">Scheduling Server</text></g><g class="participant participant-tail" data-participant="server"><rect fill="#E2E2F0" height="30.2969" rx="2.5" ry="2.5" style="stroke:#181818;stroke-width:0.5;" width="141.7295" x="427.0566" y="539.2891"/><text fill="#000000" font-family="sans-serif" font-size="14" lengthAdjust="spacing" textLength="127.7295" x="434.0566" y="559.2842">Scheduling Server</text></g><g><title>User</title><rect fill="#FFFFFF" height="430.9922" style="stroke:#181818;stroke-width:1;" width="10" x="18.9551" y="91.2969"/></g><g><title>Scheduling Client</title><rect fill="#FFFFFF" height="409.8594" style="stroke:#181818;stroke-width:1;" width="10" x="247.8472" y="112.4297"/></g><g><title>Scheduling Server</title><rect fill="#FFFFFF" height="29.1328" style="stroke:#181818;stroke-width:1;" width="10" x="492.9214" y="141.5625"/></g><g><title>Scheduling Server</title><rect fill="#FFFFFF" height="29.1328" style="stroke:#181818;stroke-width:1;" width="10" x="492.9214" y="228.9609"/></g><g><title>Scheduling Server</title><rect fill="#FFFFFF" height="29.1328" style="stroke:#181818;stroke-width:1;" width="10" x="492.9214" y="287.2266"/></g><g><title>Scheduling Server</title><rect fill="#FFFFFF" height="29.1328" style="stroke:#181818;stroke-width:1;" width="10" x="492.9214" y="398.7578"/></g><g><title>Scheduling Server</title><rect fill="#FFFFFF" height="58.2656" style="stroke:#181818;stroke-width:1;" width="10" x="492.9214" y="464.0234"/></g><g class="message" data-participant-1="user" data-participant-2="client"><polygon fill="#181818" points="235.8472,108.4297,245.8472,112.4297,235.8472,116.4297,239.8472,112.4297" style="stroke:#181818;stroke-width:1;"/><line style="stroke:#181818;stroke-width:1;" x1="28.9551" x2="241.8472" y1="112.4297" y2="112.4297"/><text fill="#000000" font-family="sans-serif" font-size="13" lengthAdjust="spacing" textLength="74.5596" x="35.9551" y="107.3638">Open client</text></g><g class="message" data-participant-1="client" data-participant-2="server"><polygon fill="#181818" points="480.9214,137.5625,490.9214,141.5625,480.9214,145.5625,484.9214,141.5625" style="stroke:#181818;stroke-width:1;"/><line style="stroke:#181818;stroke-width:1;" x1="257.8472" x2="486.9214" y1="141.5625" y2="141.5625"/><text fill="#000000" font-family="sans-serif" font-size="13" lengthAdjust="spacing" textLength="216.0742" x="264.8472" y="136.4966">Get available HealthcareServices</text></g><g class="message" data-participant-1="server" data-participant-2="client"><polygon fill="#181818" points="268.8472,166.6953,258.8472,170.6953,268.8472,174.6953,264.8472,170.6953" style="stroke:#181818;stroke-width:1;"/><line style="stroke:#181818;stroke-width:1;stroke-dasharray:2,2;" x1="262.8472" x2="496.9214" y1="170.6953" y2="170.6953"/><text fill="#000000" font-family="sans-serif" font-size="13" lengthAdjust="spacing" textLength="189.6997" x="274.8472" y="165.6294">Available HealthcareServices</text></g><g class="message" data-participant-1="user" data-participant-2="client"><polygon fill="#181818" points="235.8472,195.8281,245.8472,199.8281,235.8472,203.8281,239.8472,199.8281" style="stroke:#181818;stroke-width:1;"/><line style="stroke:#181818;stroke-width:1;" x1="28.9551" x2="241.8472" y1="199.8281" y2="199.8281"/><text fill="#000000" font-family="sans-serif" font-size="13" lengthAdjust="spacing" textLength="163.4268" x="35.9551" y="194.7622">Select HealthcareService</text></g><g class="message" data-participant-1="client" data-participant-2="server"><polygon fill="#181818" points="480.9214,224.9609,490.9214,228.9609,480.9214,232.9609,484.9214,228.9609" style="stroke:#181818;stroke-width:1;"/><line style="stroke:#181818;stroke-width:1;" x1="257.8472" x2="486.9214" y1="228.9609" y2="228.9609"/><text fill="#000000" font-family="sans-serif" font-size="13" lengthAdjust="spacing" textLength="156.6221" x="264.8472" y="223.895">Get available Schedules</text></g><g class="message" data-participant-1="server" data-participant-2="client"><polygon fill="#181818" points="268.8472,254.0938,258.8472,258.0938,268.8472,262.0938,264.8472,258.0938" style="stroke:#181818;stroke-width:1;"/><line style="stroke:#181818;stroke-width:1;stroke-dasharray:2,2;" x1="262.8472" x2="496.9214" y1="258.0938" y2="258.0938"/><text fill="#000000" font-family="sans-serif" font-size="13" lengthAdjust="spacing" textLength="130.2476" x="274.8472" y="253.0278">Available Schedules</text></g><g class="message" data-participant-1="client" data-participant-2="server"><polygon fill="#181818" points="480.9214,283.2266,490.9214,287.2266,480.9214,291.2266,484.9214,287.2266" style="stroke:#181818;stroke-width:1;"/><line style="stroke:#181818;stroke-width:1;" x1="257.8472" x2="486.9214" y1="287.2266" y2="287.2266"/><text fill="#000000" font-family="sans-serif" font-size="13" lengthAdjust="spacing" textLength="121.7988" x="264.8472" y="282.1606">Get available Slots</text></g><g class="message" data-participant-1="server" data-participant-2="client"><polygon fill="#181818" points="268.8472,312.3594,258.8472,316.3594,268.8472,320.3594,264.8472,316.3594" style="stroke:#181818;stroke-width:1;"/><line style="stroke:#181818;stroke-width:1;stroke-dasharray:2,2;" x1="262.8472" x2="496.9214" y1="316.3594" y2="316.3594"/><text fill="#000000" font-family="sans-serif" font-size="13" lengthAdjust="spacing" textLength="95.4243" x="274.8472" y="311.2935">Available Slots</text></g><g class="message" data-participant-1="user" data-participant-2="client"><polygon fill="#181818" points="235.8472,341.4922,245.8472,345.4922,235.8472,349.4922,239.8472,345.4922" style="stroke:#181818;stroke-width:1;"/><line style="stroke:#181818;stroke-width:1;" x1="28.9551" x2="241.8472" y1="345.4922" y2="345.4922"/><text fill="#000000" font-family="sans-serif" font-size="13" lengthAdjust="spacing" textLength="67.6724" x="35.9551" y="340.4263">Select slot</text></g><path d="M174.6724,360.4922 L244.1235,360.4922 L244.1235,367.625 L234.1235,377.625 L174.6724,377.625 L174.6724,360.4922" fill="#EEEEEE" style="stroke:#000000;stroke-width:1.5;"/><rect fill="none" height="75.3984" style="stroke:#000000;stroke-width:1.5;" width="404.1138" x="174.6724" y="360.4922"/><text fill="#000000" font-family="sans-serif" font-size="13" font-weight="bold" lengthAdjust="spacing" textLength="24.4512" x="189.6724" y="373.5591">opt</text><text fill="#000000" font-family="sans-serif" font-size="11" font-weight="bold" lengthAdjust="spacing" textLength="139.9922" x="259.1235" y="372.7026">[holding appointment]</text><g class="message" data-participant-1="client" data-participant-2="server"><polygon fill="#181818" points="480.9214,394.7578,490.9214,398.7578,480.9214,402.7578,484.9214,398.7578" style="stroke:#181818;stroke-width:1;"/><line style="stroke:#181818;stroke-width:1;" x1="257.8472" x2="486.9214" y1="398.7578" y2="398.7578"/><text fill="#000000" font-family="sans-serif" font-size="13" lengthAdjust="spacing" textLength="80.4058" x="264.8472" y="393.6919">Reserve slot</text></g><g class="message" data-participant-1="server" data-participant-2="client"><polygon fill="#181818" points="268.8472,423.8906,258.8472,427.8906,268.8472,431.8906,264.8472,427.8906" style="stroke:#181818;stroke-width:1;"/><line style="stroke:#181818;stroke-width:1;stroke-dasharray:2,2;" x1="262.8472" x2="496.9214" y1="427.8906" y2="427.8906"/><text fill="#000000" font-family="sans-serif" font-size="13" lengthAdjust="spacing" textLength="143.8696" x="274.8472" y="422.8247">Reserve slot response</text></g><g class="message" data-participant-1="client" data-participant-2="server"><polygon fill="#181818" points="480.9214,460.0234,490.9214,464.0234,480.9214,468.0234,484.9214,464.0234" style="stroke:#181818;stroke-width:1;"/><line style="stroke:#181818;stroke-width:1;" x1="257.8472" x2="486.9214" y1="464.0234" y2="464.0234"/><text fill="#000000" font-family="sans-serif" font-size="13" lengthAdjust="spacing" textLength="119.8564" x="264.8472" y="458.9575">Book appointment</text></g><g class="message" data-participant-1="server" data-participant-2="client"><polygon fill="#181818" points="268.8472,489.1563,258.8472,493.1563,268.8472,497.1563,264.8472,493.1563" style="stroke:#181818;stroke-width:1;"/><line style="stroke:#181818;stroke-width:1;stroke-dasharray:2,2;" x1="262.8472" x2="491.9214" y1="493.1563" y2="493.1563"/><text fill="#000000" font-family="sans-serif" font-size="13" lengthAdjust="spacing" textLength="183.3203" x="274.8472" y="488.0903">Book appointment response</text></g><g class="message" data-participant-1="client" data-participant-2="user"><polygon fill="#181818" points="34.9551,518.2891,24.9551,522.2891,34.9551,526.2891,30.9551,522.2891" style="stroke:#181818;stroke-width:1;"/><line style="stroke:#181818;stroke-width:1;stroke-dasharray:2,2;" x1="28.9551" x2="251.8472" y1="522.2891" y2="522.2891"/><text fill="#000000" font-family="sans-serif" font-size="13" lengthAdjust="spacing" textLength="194.8921" x="40.9551" y="517.2231">Confirm appointment booking</text></g><!--SRC=[bL9BReCm4DrpYgVikG2BIaqMxQvIKGymCTDYrR4jUyBvYp4f14YRR9Z1UZyzcvIuW8_80HHnxcVXAOXMsfCLx6hLSdCssdxXO3HRsIMS6jQRo9f3ns50nc4j2bAYEnBE5kc3ycdKgV3csLv4Vv7ZVnu9dRKglB20EjA6ZeRnocIaLHGusMh5SP8OtVD0MSuid_yIQ7WfiKnSis4bQ-w_SSUQ7auvyTRXClgsfN7oiDt0kRk7sCCBvmMjCqrw0kIzqrPEwGQ1TIdlF6oP22njWAruSn82H-ziv1wxZicssRY9lNFVLydkwMH9ceml1WcTUgbmSFPJXzCL_DZp-qOskfoTZ6zzTf84Vm00]--></g></svg>
