<?xml version="1.0" encoding="us-ascii" standalone="no"?><svg xmlns="http://www.w3.org/2000/svg" xmlns:xlink="http://www.w3.org/1999/xlink" contentStyleType="text/css" height="885px" preserveAspectRatio="none" style="width:1189px;height:885px;background:#FFFFFF;" version="1.1" viewBox="0 0 1189 885" width="1189px" zoomAndPan="magnify"><defs/><g><rect fill="#FFFFFF" height="689.5324" style="stroke:#181818;stroke-width:1.0;" width="10" x="18.5" y="94.0679"/><rect fill="#FFFFFF" height="602.4143" style="stroke:#181818;stroke-width:1.0;" width="10" x="290.5" y="117.7739"/><rect fill="#FFFFFF" height="158.5301" style="stroke:#181818;stroke-width:1.0;" width="10" x="516.5" y="149.4799"/><rect fill="#FFFFFF" height="285.3541" style="stroke:#181818;stroke-width:1.0;" width="10" x="516.5" y="371.4221"/><rect fill="#FFFFFF" height="63.412" style="stroke:#181818;stroke-width:1.0;" width="10" x="742.5" y="181.186"/><rect fill="#FFFFFF" height="63.412" style="stroke:#181818;stroke-width:1.0;" width="10" x="742.5" y="403.1281"/><rect fill="#FFFFFF" height="63.412" style="stroke:#181818;stroke-width:1.0;" width="10" x="742.5" y="529.9521"/><rect fill="#FFFFFF" height="63.412" style="stroke:#181818;stroke-width:1.0;" width="10" x="901.5" y="212.892"/><rect fill="#FFFFFF" height="63.412" style="stroke:#181818;stroke-width:1.0;" width="10" x="901.5" y="434.8341"/><rect fill="#FFFFFF" height="63.412" style="stroke:#181818;stroke-width:1.0;" width="10" x="901.5" y="561.6582"/><rect fill="#FFFFFF" height="40.706" style="stroke:#181818;stroke-width:1.0;" width="10" x="1082" y="751.8943"/><line style="stroke:#181818;stroke-width:0.5;stroke-dasharray:5.0,5.0;" x1="23" x2="23" y1="84.0679" y2="801.6003"/><line style="stroke:#181818;stroke-width:0.5;stroke-dasharray:5.0,5.0;" x1="295.5" x2="295.5" y1="84.0679" y2="801.6003"/><line style="stroke:#181818;stroke-width:0.5;stroke-dasharray:5.0,5.0;" x1="521" x2="521" y1="84.0679" y2="801.6003"/><line style="stroke:#181818;stroke-width:0.5;stroke-dasharray:5.0,5.0;" x1="747" x2="747" y1="84.0679" y2="801.6003"/><line style="stroke:#181818;stroke-width:0.5;stroke-dasharray:5.0,5.0;" x1="906" x2="906" y1="84.0679" y2="801.6003"/><line style="stroke:#181818;stroke-width:0.5;stroke-dasharray:5.0,5.0;" x1="1087" x2="1087" y1="84.0679" y2="801.6003"/><text fill="#000000" font-family="sans-serif" font-size="14" lengthAdjust="spacing" textLength="31" x="5" y="79.9659">User</text><ellipse cx="23.5" cy="13.5" fill="#E2E2F0" rx="8" ry="8" style="stroke:#181818;stroke-width:0.5;"/><path d="M23.5,21.5 L23.5,48.5 M10.5,29.5 L36.5,29.5 M23.5,48.5 L10.5,63.5 M23.5,48.5 L36.5,63.5 " fill="none" style="stroke:#181818;stroke-width:0.5;"/><text fill="#000000" font-family="sans-serif" font-size="14" lengthAdjust="spacing" textLength="31" x="5" y="815.5662">User</text><ellipse cx="23.5" cy="828.1682" fill="#E2E2F0" rx="8" ry="8" style="stroke:#181818;stroke-width:0.5;"/><path d="M23.5,836.1682 L23.5,863.1682 M10.5,844.1682 L36.5,844.1682 M23.5,863.1682 L10.5,878.1682 M23.5,863.1682 L36.5,878.1682 " fill="none" style="stroke:#181818;stroke-width:0.5;"/><rect fill="#E2E2F0" height="33.0679" rx="2.5" ry="2.5" style="stroke:#181818;stroke-width:0.5;" width="176" x="207.5" y="50"/><text fill="#000000" font-family="sans-serif" font-size="14" lengthAdjust="spacing" textLength="162" x="214.5" y="71.9659">Initial Scheduling Client</text><rect fill="#E2E2F0" height="33.0679" rx="2.5" ry="2.5" style="stroke:#181818;stroke-width:0.5;" width="176" x="207.5" y="800.6003"/><text fill="#000000" font-family="sans-serif" font-size="14" lengthAdjust="spacing" textLength="162" x="214.5" y="822.5662">Initial Scheduling Client</text><rect fill="#E2E2F0" height="33.0679" rx="2.5" ry="2.5" style="stroke:#181818;stroke-width:0.5;" width="151" x="446" y="50"/><text fill="#000000" font-family="sans-serif" font-size="14" lengthAdjust="spacing" textLength="137" x="453" y="71.9659">Scheduling Platform</text><rect fill="#E2E2F0" height="33.0679" rx="2.5" ry="2.5" style="stroke:#181818;stroke-width:0.5;" width="151" x="446" y="800.6003"/><text fill="#000000" font-family="sans-serif" font-size="14" lengthAdjust="spacing" textLength="137" x="453" y="822.5662">Scheduling Platform</text><rect fill="#E2E2F0" height="33.0679" rx="2.5" ry="2.5" style="stroke:#181818;stroke-width:0.5;" width="149" x="673" y="50"/><text fill="#000000" font-family="sans-serif" font-size="14" lengthAdjust="spacing" textLength="135" x="680" y="71.9659">Scheduling Server 1</text><rect fill="#E2E2F0" height="33.0679" rx="2.5" ry="2.5" style="stroke:#181818;stroke-width:0.5;" width="149" x="673" y="800.6003"/><text fill="#000000" font-family="sans-serif" font-size="14" lengthAdjust="spacing" textLength="135" x="680" y="822.5662">Scheduling Server 1</text><rect fill="#E2E2F0" height="33.0679" rx="2.5" ry="2.5" style="stroke:#181818;stroke-width:0.5;" width="149" x="832" y="50"/><text fill="#000000" font-family="sans-serif" font-size="14" lengthAdjust="spacing" textLength="135" x="839" y="71.9659">Scheduling Server 2</text><rect fill="#E2E2F0" height="33.0679" rx="2.5" ry="2.5" style="stroke:#181818;stroke-width:0.5;" width="149" x="832" y="800.6003"/><text fill="#000000" font-family="sans-serif" font-size="14" lengthAdjust="spacing" textLength="135" x="839" y="822.5662">Scheduling Server 2</text><rect fill="#E2E2F0" height="33.0679" rx="2.5" ry="2.5" style="stroke:#181818;stroke-width:0.5;" width="192" x="991" y="50"/><text fill="#000000" font-family="sans-serif" font-size="14" lengthAdjust="spacing" textLength="178" x="998" y="71.9659">External Scheduling Client</text><rect fill="#E2E2F0" height="33.0679" rx="2.5" ry="2.5" style="stroke:#181818;stroke-width:0.5;" width="192" x="991" y="800.6003"/><text fill="#000000" font-family="sans-serif" font-size="14" lengthAdjust="spacing" textLength="178" x="998" y="822.5662">External Scheduling Client</text><rect fill="#FFFFFF" height="689.5324" style="stroke:#181818;stroke-width:1.0;" width="10" x="18.5" y="94.0679"/><rect fill="#FFFFFF" height="602.4143" style="stroke:#181818;stroke-width:1.0;" width="10" x="290.5" y="117.7739"/><rect fill="#FFFFFF" height="158.5301" style="stroke:#181818;stroke-width:1.0;" width="10" x="516.5" y="149.4799"/><rect fill="#FFFFFF" height="285.3541" style="stroke:#181818;stroke-width:1.0;" width="10" x="516.5" y="371.4221"/><rect fill="#FFFFFF" height="63.412" style="stroke:#181818;stroke-width:1.0;" width="10" x="742.5" y="181.186"/><rect fill="#FFFFFF" height="63.412" style="stroke:#181818;stroke-width:1.0;" width="10" x="742.5" y="403.1281"/><rect fill="#FFFFFF" height="63.412" style="stroke:#181818;stroke-width:1.0;" width="10" x="742.5" y="529.9521"/><rect fill="#FFFFFF" height="63.412" style="stroke:#181818;stroke-width:1.0;" width="10" x="901.5" y="212.892"/><rect fill="#FFFFFF" height="63.412" style="stroke:#181818;stroke-width:1.0;" width="10" x="901.5" y="434.8341"/><rect fill="#FFFFFF" height="63.412" style="stroke:#181818;stroke-width:1.0;" width="10" x="901.5" y="561.6582"/><rect fill="#FFFFFF" height="40.706" style="stroke:#181818;stroke-width:1.0;" width="10" x="1082" y="751.8943"/><polygon fill="#181818" points="278.5,113.7739,288.5,117.7739,278.5,121.7739,282.5,117.7739" style="stroke:#181818;stroke-width:1.0;"/><line style="stroke:#181818;stroke-width:1.0;" x1="28.5" x2="284.5" y1="117.7739" y2="117.7739"/><text fill="#000000" font-family="sans-serif" font-size="13" lengthAdjust="spacing" textLength="68" x="35.5" y="111.9649">Open client</text><polygon fill="#181818" points="504.5,145.4799,514.5,149.4799,504.5,153.4799,508.5,149.4799" style="stroke:#181818;stroke-width:1.0;"/><line style="stroke:#181818;stroke-width:1.0;" x1="300.5" x2="510.5" y1="149.4799" y2="149.4799"/><text fill="#000000" font-family="sans-serif" font-size="13" lengthAdjust="spacing" textLength="197" x="307.5" y="143.6709">Find available HealthcareServices</text><polygon fill="#181818" points="730.5,177.186,740.5,181.186,730.5,185.186,734.5,181.186" style="stroke:#181818;stroke-width:1.0;"/><line style="stroke:#181818;stroke-width:1.0;" x1="526.5" x2="736.5" y1="181.186" y2="181.186"/><text fill="#000000" font-family="sans-serif" font-size="13" lengthAdjust="spacing" textLength="197" x="533.5" y="175.377">Find available HealthcareServices</text><polygon fill="#181818" points="889.5,208.892,899.5,212.892,889.5,216.892,893.5,212.892" style="stroke:#181818;stroke-width:1.0;"/><line style="stroke:#181818;stroke-width:1.0;" x1="526.5" x2="895.5" y1="212.892" y2="212.892"/><text fill="#000000" font-family="sans-serif" font-size="13" lengthAdjust="spacing" textLength="197" x="533.5" y="207.083">Find available HealthcareServices</text><polygon fill="#181818" points="537.5,240.598,527.5,244.598,537.5,248.598,533.5,244.598" style="stroke:#181818;stroke-width:1.0;"/><line style="stroke:#181818;stroke-width:1.0;stroke-dasharray:2.0,2.0;" x1="531.5" x2="746.5" y1="244.598" y2="244.598"/><text fill="#000000" font-family="sans-serif" font-size="13" lengthAdjust="spacing" textLength="169" x="543.5" y="238.789">Available HealthcareServices</text><polygon fill="#181818" points="537.5,272.304,527.5,276.304,537.5,280.304,533.5,276.304" style="stroke:#181818;stroke-width:1.0;"/><line style="stroke:#181818;stroke-width:1.0;stroke-dasharray:2.0,2.0;" x1="531.5" x2="905.5" y1="276.304" y2="276.304"/><text fill="#000000" font-family="sans-serif" font-size="13" lengthAdjust="spacing" textLength="169" x="543.5" y="270.495">Available HealthcareServices</text><polygon fill="#181818" points="311.5,304.01,301.5,308.01,311.5,312.01,307.5,308.01" style="stroke:#181818;stroke-width:1.0;"/><line style="stroke:#181818;stroke-width:1.0;stroke-dasharray:2.0,2.0;" x1="305.5" x2="520.5" y1="308.01" y2="308.01"/><text fill="#000000" font-family="sans-serif" font-size="13" lengthAdjust="spacing" textLength="169" x="317.5" y="302.201">Available HealthcareServices</text><polygon fill="#181818" points="278.5,335.716,288.5,339.716,278.5,343.716,282.5,339.716" style="stroke:#181818;stroke-width:1.0;"/><line style="stroke:#181818;stroke-width:1.0;" x1="28.5" x2="284.5" y1="339.716" y2="339.716"/><text fill="#000000" font-family="sans-serif" font-size="13" lengthAdjust="spacing" textLength="145" x="35.5" y="333.907">Select HealthcareService</text><polygon fill="#181818" points="504.5,367.4221,514.5,371.4221,504.5,375.4221,508.5,371.4221" style="stroke:#181818;stroke-width:1.0;"/><line style="stroke:#181818;stroke-width:1.0;" x1="300.5" x2="510.5" y1="371.4221" y2="371.4221"/><text fill="#000000" font-family="sans-serif" font-size="13" lengthAdjust="spacing" textLength="144" x="307.5" y="365.6131">Find available Schedules</text><polygon fill="#181818" points="730.5,399.1281,740.5,403.1281,730.5,407.1281,734.5,403.1281" style="stroke:#181818;stroke-width:1.0;"/><line style="stroke:#181818;stroke-width:1.0;" x1="526.5" x2="736.5" y1="403.1281" y2="403.1281"/><text fill="#000000" font-family="sans-serif" font-size="13" lengthAdjust="spacing" textLength="144" x="533.5" y="397.3191">Find available Schedules</text><polygon fill="#181818" points="889.5,430.8341,899.5,434.8341,889.5,438.8341,893.5,434.8341" style="stroke:#181818;stroke-width:1.0;"/><line style="stroke:#181818;stroke-width:1.0;" x1="526.5" x2="895.5" y1="434.8341" y2="434.8341"/><text fill="#000000" font-family="sans-serif" font-size="13" lengthAdjust="spacing" textLength="144" x="533.5" y="429.0251">Find available Schedules</text><polygon fill="#181818" points="537.5,462.5401,527.5,466.5401,537.5,470.5401,533.5,466.5401" style="stroke:#181818;stroke-width:1.0;"/><line style="stroke:#181818;stroke-width:1.0;stroke-dasharray:2.0,2.0;" x1="531.5" x2="746.5" y1="466.5401" y2="466.5401"/><text fill="#000000" font-family="sans-serif" font-size="13" lengthAdjust="spacing" textLength="116" x="543.5" y="460.7311">Available Schedules</text><polygon fill="#181818" points="537.5,494.2461,527.5,498.2461,537.5,502.2461,533.5,498.2461" style="stroke:#181818;stroke-width:1.0;"/><line style="stroke:#181818;stroke-width:1.0;stroke-dasharray:2.0,2.0;" x1="531.5" x2="905.5" y1="498.2461" y2="498.2461"/><text fill="#000000" font-family="sans-serif" font-size="13" lengthAdjust="spacing" textLength="116" x="543.5" y="492.4371">Available Schedules</text><polygon fill="#181818" points="730.5,525.9521,740.5,529.9521,730.5,533.9521,734.5,529.9521" style="stroke:#181818;stroke-width:1.0;"/><line style="stroke:#181818;stroke-width:1.0;" x1="526.5" x2="736.5" y1="529.9521" y2="529.9521"/><text fill="#000000" font-family="sans-serif" font-size="13" lengthAdjust="spacing" textLength="113" x="533.5" y="524.1431">Find available Slots</text><polygon fill="#181818" points="889.5,557.6582,899.5,561.6582,889.5,565.6582,893.5,561.6582" style="stroke:#181818;stroke-width:1.0;"/><line style="stroke:#181818;stroke-width:1.0;" x1="526.5" x2="895.5" y1="561.6582" y2="561.6582"/><text fill="#000000" font-family="sans-serif" font-size="13" lengthAdjust="spacing" textLength="113" x="533.5" y="555.8492">Find available Slots</text><polygon fill="#181818" points="537.5,589.3642,527.5,593.3642,537.5,597.3642,533.5,593.3642" style="stroke:#181818;stroke-width:1.0;"/><line style="stroke:#181818;stroke-width:1.0;stroke-dasharray:2.0,2.0;" x1="531.5" x2="746.5" y1="593.3642" y2="593.3642"/><text fill="#000000" font-family="sans-serif" font-size="13" lengthAdjust="spacing" textLength="85" x="543.5" y="587.5552">Available Slots</text><polygon fill="#181818" points="537.5,621.0702,527.5,625.0702,537.5,629.0702,533.5,625.0702" style="stroke:#181818;stroke-width:1.0;"/><line style="stroke:#181818;stroke-width:1.0;stroke-dasharray:2.0,2.0;" x1="531.5" x2="905.5" y1="625.0702" y2="625.0702"/><text fill="#000000" font-family="sans-serif" font-size="13" lengthAdjust="spacing" textLength="85" x="543.5" y="619.2612">Available Slots</text><polygon fill="#181818" points="311.5,652.7762,301.5,656.7762,311.5,660.7762,307.5,656.7762" style="stroke:#181818;stroke-width:1.0;"/><line style="stroke:#181818;stroke-width:1.0;stroke-dasharray:2.0,2.0;" x1="305.5" x2="520.5" y1="656.7762" y2="656.7762"/><text fill="#000000" font-family="sans-serif" font-size="13" lengthAdjust="spacing" textLength="85" x="317.5" y="650.9672">Available Slots</text><polygon fill="#181818" points="278.5,684.4822,288.5,688.4822,278.5,692.4822,282.5,688.4822" style="stroke:#181818;stroke-width:1.0;"/><line style="stroke:#181818;stroke-width:1.0;" x1="28.5" x2="284.5" y1="688.4822" y2="688.4822"/><text fill="#000000" font-family="sans-serif" font-size="13" lengthAdjust="spacing" textLength="238" x="35.5" y="682.6732">Select slot requiring external scheduling</text><polygon fill="#181818" points="39.5,716.1882,29.5,720.1882,39.5,724.1882,35.5,720.1882" style="stroke:#181818;stroke-width:1.0;"/><line style="stroke:#181818;stroke-width:1.0;" x1="33.5" x2="294.5" y1="720.1882" y2="720.1882"/><text fill="#000000" font-family="sans-serif" font-size="13" lengthAdjust="spacing" textLength="220" x="45.5" y="714.3792">Redirect to external scheduling client</text><line style="stroke:#A80036;stroke-width:2.0;" x1="286.5" x2="304.5" y1="711.1882" y2="729.1882"/><line style="stroke:#A80036;stroke-width:2.0;" x1="286.5" x2="304.5" y1="729.1882" y2="711.1882"/><polygon fill="#181818" points="1070,747.8943,1080,751.8943,1070,755.8943,1074,751.8943" style="stroke:#181818;stroke-width:1.0;"/><line style="stroke:#181818;stroke-width:1.0;" x1="28.5" x2="1076" y1="751.8943" y2="751.8943"/><text fill="#000000" font-family="sans-serif" font-size="13" lengthAdjust="spacing" textLength="113" x="35.5" y="746.0853">Book appointment</text><polygon fill="#181818" points="34.5,779.6003,24.5,783.6003,34.5,787.6003,30.5,783.6003" style="stroke:#181818;stroke-width:1.0;"/><line style="stroke:#181818;stroke-width:1.0;stroke-dasharray:2.0,2.0;" x1="28.5" x2="1081" y1="783.6003" y2="783.6003"/><text fill="#000000" font-family="sans-serif" font-size="13" lengthAdjust="spacing" textLength="183" x="40.5" y="777.7913">Confirm appointment booking</text><!--SRC=[fPJFJiCm3CRlVGfhznxMOmz8C87W16BY0RpKOn5PKX9lWhUdwT-KTMktNfew-loJ_Jao2ZOMFXnPG0U7uenoj2o5p54pB5wqP8aArc97sK59_Gah9Kdpmkj5-TlF29Hl2dbhxBxKvdLmLhqcUopAM9Pgv-_zpN9Cd_JrIL__-CDazKW3ZIYAKB0y8bFbXFz0V5UhKdZDIJSzjyewhWwlRXfDuKdg3F28Kk564JmJAju9jEGBbO9SH-dSgNyygJFXAbRetH0jkOsMH1qOuhZNwVqbL4P3fNNSsR0aw3CEvZKLr9f_Cl4rAH9ycZvbtFMBcpFb0SJrmxq4cJRJZd3xA2ypacYo9ShmF3lE02PQKMRFiE5i_lWZFiaTVRUko01BtmTf_UAZPXcwTXa63zapKdYdJ5gVosP8twoxZ1nRyzk4_mfe5ceA3yPy0UQvaPht0tkpNRtziBAWgcXbz5OMhWGKs1HONtteHbjPRud_0G00]--></g></svg>