<?xml version="1.0" encoding="us-ascii" standalone="no"?><svg xmlns="http://www.w3.org/2000/svg" xmlns:xlink="http://www.w3.org/1999/xlink" contentStyleType="text/css" height="665px" preserveAspectRatio="none" style="width:551px;height:665px;background:#FFFFFF;" version="1.1" viewBox="0 0 551 665" width="551px" zoomAndPan="magnify"><defs/><g><rect fill="#FFFFFF" height="469.5902" style="stroke:#181818;stroke-width:1.0;" width="10" x="18.5" y="94.0679"/><rect fill="#FFFFFF" height="445.8842" style="stroke:#181818;stroke-width:1.0;" width="10" x="235.5" y="117.7739"/><rect fill="#FFFFFF" height="31.706" style="stroke:#181818;stroke-width:1.0;" width="10" x="461.5" y="149.4799"/><rect fill="#FFFFFF" height="31.706" style="stroke:#181818;stroke-width:1.0;" width="10" x="461.5" y="244.598"/><rect fill="#FFFFFF" height="31.706" style="stroke:#181818;stroke-width:1.0;" width="10" x="461.5" y="308.01"/><rect fill="#FFFFFF" height="31.706" style="stroke:#181818;stroke-width:1.0;" width="10" x="461.5" y="429.8341"/><rect fill="#FFFFFF" height="63.412" style="stroke:#181818;stroke-width:1.0;" width="10" x="461.5" y="500.2461"/><rect fill="none" height="83.118" style="stroke:#000000;stroke-width:1.5;" width="381" x="164" y="386.4221"/><line style="stroke:#181818;stroke-width:0.5;stroke-dasharray:5.0,5.0;" x1="23" x2="23" y1="84.0679" y2="581.6582"/><line style="stroke:#181818;stroke-width:0.5;stroke-dasharray:5.0,5.0;" x1="240" x2="240" y1="84.0679" y2="581.6582"/><line style="stroke:#181818;stroke-width:0.5;stroke-dasharray:5.0,5.0;" x1="466" x2="466" y1="84.0679" y2="581.6582"/><text fill="#000000" font-family="sans-serif" font-size="14" lengthAdjust="spacing" textLength="31" x="5" y="79.9659">User</text><ellipse cx="23.5" cy="13.5" fill="#E2E2F0" rx="8" ry="8" style="stroke:#181818;stroke-width:0.5;"/><path d="M23.5,21.5 L23.5,48.5 M10.5,29.5 L36.5,29.5 M23.5,48.5 L10.5,63.5 M23.5,48.5 L36.5,63.5 " fill="none" style="stroke:#181818;stroke-width:0.5;"/><text fill="#000000" font-family="sans-serif" font-size="14" lengthAdjust="spacing" textLength="31" x="5" y="595.6241">User</text><ellipse cx="23.5" cy="608.2261" fill="#E2E2F0" rx="8" ry="8" style="stroke:#181818;stroke-width:0.5;"/><path d="M23.5,616.2261 L23.5,643.2261 M10.5,624.2261 L36.5,624.2261 M23.5,643.2261 L10.5,658.2261 M23.5,643.2261 L36.5,658.2261 " fill="none" style="stroke:#181818;stroke-width:0.5;"/><rect fill="#E2E2F0" height="33.0679" rx="2.5" ry="2.5" style="stroke:#181818;stroke-width:0.5;" width="133" x="174" y="50"/><text fill="#000000" font-family="sans-serif" font-size="14" lengthAdjust="spacing" textLength="119" x="181" y="71.9659">Scheduling Client</text><rect fill="#E2E2F0" height="33.0679" rx="2.5" ry="2.5" style="stroke:#181818;stroke-width:0.5;" width="133" x="174" y="580.6582"/><text fill="#000000" font-family="sans-serif" font-size="14" lengthAdjust="spacing" textLength="119" x="181" y="602.6241">Scheduling Client</text><rect fill="#E2E2F0" height="33.0679" rx="2.5" ry="2.5" style="stroke:#181818;stroke-width:0.5;" width="137" x="398" y="50"/><text fill="#000000" font-family="sans-serif" font-size="14" lengthAdjust="spacing" textLength="123" x="405" y="71.9659">Scheduling Server</text><rect fill="#E2E2F0" height="33.0679" rx="2.5" ry="2.5" style="stroke:#181818;stroke-width:0.5;" width="137" x="398" y="580.6582"/><text fill="#000000" font-family="sans-serif" font-size="14" lengthAdjust="spacing" textLength="123" x="405" y="602.6241">Scheduling Server</text><rect fill="#FFFFFF" height="469.5902" style="stroke:#181818;stroke-width:1.0;" width="10" x="18.5" y="94.0679"/><rect fill="#FFFFFF" height="445.8842" style="stroke:#181818;stroke-width:1.0;" width="10" x="235.5" y="117.7739"/><rect fill="#FFFFFF" height="31.706" style="stroke:#181818;stroke-width:1.0;" width="10" x="461.5" y="149.4799"/><rect fill="#FFFFFF" height="31.706" style="stroke:#181818;stroke-width:1.0;" width="10" x="461.5" y="244.598"/><rect fill="#FFFFFF" height="31.706" style="stroke:#181818;stroke-width:1.0;" width="10" x="461.5" y="308.01"/><rect fill="#FFFFFF" height="31.706" style="stroke:#181818;stroke-width:1.0;" width="10" x="461.5" y="429.8341"/><rect fill="#FFFFFF" height="63.412" style="stroke:#181818;stroke-width:1.0;" width="10" x="461.5" y="500.2461"/><polygon fill="#181818" points="223.5,113.7739,233.5,117.7739,223.5,121.7739,227.5,117.7739" style="stroke:#181818;stroke-width:1.0;"/><line style="stroke:#181818;stroke-width:1.0;" x1="28.5" x2="229.5" y1="117.7739" y2="117.7739"/><text fill="#000000" font-family="sans-serif" font-size="13" lengthAdjust="spacing" textLength="68" x="35.5" y="111.9649">Open client</text><polygon fill="#181818" points="449.5,145.4799,459.5,149.4799,449.5,153.4799,453.5,149.4799" style="stroke:#181818;stroke-width:1.0;"/><line style="stroke:#181818;stroke-width:1.0;" x1="245.5" x2="455.5" y1="149.4799" y2="149.4799"/><text fill="#000000" font-family="sans-serif" font-size="13" lengthAdjust="spacing" textLength="197" x="252.5" y="143.6709">Find available HealthcareServices</text><polygon fill="#181818" points="256.5,177.186,246.5,181.186,256.5,185.186,252.5,181.186" style="stroke:#181818;stroke-width:1.0;"/><line style="stroke:#181818;stroke-width:1.0;stroke-dasharray:2.0,2.0;" x1="250.5" x2="465.5" y1="181.186" y2="181.186"/><text fill="#000000" font-family="sans-serif" font-size="13" lengthAdjust="spacing" textLength="169" x="262.5" y="175.377">Available HealthcareServices</text><polygon fill="#181818" points="223.5,208.892,233.5,212.892,223.5,216.892,227.5,212.892" style="stroke:#181818;stroke-width:1.0;"/><line style="stroke:#181818;stroke-width:1.0;" x1="28.5" x2="229.5" y1="212.892" y2="212.892"/><text fill="#000000" font-family="sans-serif" font-size="13" lengthAdjust="spacing" textLength="145" x="35.5" y="207.083">Select HealthcareService</text><polygon fill="#181818" points="449.5,240.598,459.5,244.598,449.5,248.598,453.5,244.598" style="stroke:#181818;stroke-width:1.0;"/><line style="stroke:#181818;stroke-width:1.0;" x1="245.5" x2="455.5" y1="244.598" y2="244.598"/><text fill="#000000" font-family="sans-serif" font-size="13" lengthAdjust="spacing" textLength="144" x="252.5" y="238.789">Find available Schedules</text><polygon fill="#181818" points="256.5,272.304,246.5,276.304,256.5,280.304,252.5,276.304" style="stroke:#181818;stroke-width:1.0;"/><line style="stroke:#181818;stroke-width:1.0;stroke-dasharray:2.0,2.0;" x1="250.5" x2="465.5" y1="276.304" y2="276.304"/><text fill="#000000" font-family="sans-serif" font-size="13" lengthAdjust="spacing" textLength="116" x="262.5" y="270.495">Available Schedules</text><polygon fill="#181818" points="449.5,304.01,459.5,308.01,449.5,312.01,453.5,308.01" style="stroke:#181818;stroke-width:1.0;"/><line style="stroke:#181818;stroke-width:1.0;" x1="245.5" x2="455.5" y1="308.01" y2="308.01"/><text fill="#000000" font-family="sans-serif" font-size="13" lengthAdjust="spacing" textLength="113" x="252.5" y="302.201">Find available Slots</text><polygon fill="#181818" points="256.5,335.716,246.5,339.716,256.5,343.716,252.5,339.716" style="stroke:#181818;stroke-width:1.0;"/><line style="stroke:#181818;stroke-width:1.0;stroke-dasharray:2.0,2.0;" x1="250.5" x2="465.5" y1="339.716" y2="339.716"/><text fill="#000000" font-family="sans-serif" font-size="13" lengthAdjust="spacing" textLength="85" x="262.5" y="333.907">Available Slots</text><polygon fill="#181818" points="223.5,367.4221,233.5,371.4221,223.5,375.4221,227.5,371.4221" style="stroke:#181818;stroke-width:1.0;"/><line style="stroke:#181818;stroke-width:1.0;" x1="28.5" x2="229.5" y1="371.4221" y2="371.4221"/><text fill="#000000" font-family="sans-serif" font-size="13" lengthAdjust="spacing" textLength="60" x="35.5" y="365.6131">Select slot</text><path d="M164,386.4221 L231,386.4221 L231,396.1281 L221,406.1281 L164,406.1281 L164,386.4221 " fill="#EEEEEE" style="stroke:#000000;stroke-width:1.5;"/><rect fill="none" height="83.118" style="stroke:#000000;stroke-width:1.5;" width="381" x="164" y="386.4221"/><text fill="#000000" font-family="sans-serif" font-size="13" font-weight="bold" lengthAdjust="spacing" textLength="22" x="179" y="401.3191">opt</text><text fill="#000000" font-family="sans-serif" font-size="11" font-weight="bold" lengthAdjust="spacing" textLength="125" x="246" y="400.181">[holding appointment]</text><polygon fill="#181818" points="449.5,425.8341,459.5,429.8341,449.5,433.8341,453.5,429.8341" style="stroke:#181818;stroke-width:1.0;"/><line style="stroke:#181818;stroke-width:1.0;" x1="245.5" x2="455.5" y1="429.8341" y2="429.8341"/><text fill="#000000" font-family="sans-serif" font-size="13" lengthAdjust="spacing" textLength="72" x="252.5" y="424.0251">Reserve slot</text><polygon fill="#181818" points="256.5,457.5401,246.5,461.5401,256.5,465.5401,252.5,461.5401" style="stroke:#181818;stroke-width:1.0;"/><line style="stroke:#181818;stroke-width:1.0;stroke-dasharray:2.0,2.0;" x1="250.5" x2="465.5" y1="461.5401" y2="461.5401"/><text fill="#000000" font-family="sans-serif" font-size="13" lengthAdjust="spacing" textLength="130" x="262.5" y="455.7311">Reserve slot response</text><polygon fill="#181818" points="449.5,496.2461,459.5,500.2461,449.5,504.2461,453.5,500.2461" style="stroke:#181818;stroke-width:1.0;"/><line style="stroke:#181818;stroke-width:1.0;" x1="245.5" x2="455.5" y1="500.2461" y2="500.2461"/><text fill="#000000" font-family="sans-serif" font-size="13" lengthAdjust="spacing" textLength="113" x="252.5" y="494.4371">Book appointment</text><polygon fill="#181818" points="256.5,527.9521,246.5,531.9521,256.5,535.9521,252.5,531.9521" style="stroke:#181818;stroke-width:1.0;"/><line style="stroke:#181818;stroke-width:1.0;stroke-dasharray:2.0,2.0;" x1="250.5" x2="460.5" y1="531.9521" y2="531.9521"/><text fill="#000000" font-family="sans-serif" font-size="13" lengthAdjust="spacing" textLength="171" x="262.5" y="526.1431">Book appointment response</text><polygon fill="#181818" points="34.5,559.6582,24.5,563.6582,34.5,567.6582,30.5,563.6582" style="stroke:#181818;stroke-width:1.0;"/><line style="stroke:#181818;stroke-width:1.0;stroke-dasharray:2.0,2.0;" x1="28.5" x2="239.5" y1="563.6582" y2="563.6582"/><text fill="#000000" font-family="sans-serif" font-size="13" lengthAdjust="spacing" textLength="183" x="40.5" y="557.8492">Confirm appointment booking</text><!--SRC=[bL9BJiCm4Dtd5AFkSu4ia6Wbn0w9Y0DCxO5OkBPbJtD-_2j9ar3QJMPYlP-UZOAjXuz07Z30ESx6eMSbb4F3iEl5GFAibVc2WrPaU9Tm8gz_8dlo8_cC37bj6XIiHcGg5ka3xLFLwU3DaRc8_YBhVna9NRGwU5560eweD1urmIkXva6Wf-Ih18L9ezgN0Mqxyto-9I1fAR6Ct9CcmMlk_tbhKG_7d7ZhT0LzmrDRVjWlS-vk8aHuOnt3OBLChm2TiyhmALqYmBgMTyfR8G8iRG2suir9u2auQm95x3ec6Rbn5tjhlw-ItTF9aZGPNmmIElNImS6QJ-LFL_1ZvCT6DhgSdTJdFZj9WZy0]--></g></svg>